ISO-10303-21;
HEADER;
/* Generated by software containing ST-Developer
 * from STEP Tools, Inc. (www.steptools.com) 
 */

FILE_DESCRIPTION(
/* description */ (''),
/* implementation_level */ '2;1');

FILE_NAME(
/* name */ 'cc114685-d1cb-4820-ba40-c2b0fbe16c74.stp',
/* time_stamp */ '2026-06-11T14:08:21Z',
/* author */ (''),
/* organization */ (''),
/* preprocessor_version */ 'ST-DEVELOPER v20.1',
/* originating_system */ 'Autodesk Translation Framework v15.8.0.0',
/* authorisation */ '');

FILE_SCHEMA (('AUTOMOTIVE_DESIGN { 1 0 10303 214 3 1 1 }'));
ENDSEC;

DATA;
#10=MECHANICAL_DESIGN_GEOMETRIC_PRESENTATION_REPRESENTATION('',(#13),#1029);
#11=SHAPE_REPRESENTATION_RELATIONSHIP('SRR','None',#1036,#12);
#12=ADVANCED_BREP_SHAPE_REPRESENTATION('',(#14),#1028);
#13=STYLED_ITEM('',(#1045),#14);
#14=MANIFOLD_SOLID_BREP('Body3',#621);
#15=FACE_BOUND('',#82,.T.);
#16=CIRCLE('',#650,2.1);
#17=CIRCLE('',#655,2.1);
#18=CIRCLE('',#657,2.1);
#19=CIRCLE('',#658,2.1);
#20=CIRCLE('',#659,2.1);
#21=CIRCLE('',#660,2.1);
#22=CIRCLE('',#661,2.1);
#23=CIRCLE('',#662,2.1);
#24=CIRCLE('',#663,2.1);
#25=CIRCLE('',#664,2.1);
#26=ELLIPSE('',#641,0.282842712474619,0.2);
#27=ELLIPSE('',#642,0.282842712474619,0.2);
#28=ELLIPSE('',#644,0.282842712474619,0.2);
#29=ELLIPSE('',#645,0.282842712474619,0.2);
#30=CYLINDRICAL_SURFACE('',#640,0.2);
#31=CYLINDRICAL_SURFACE('',#643,0.2);
#32=CYLINDRICAL_SURFACE('',#646,0.2);
#33=CYLINDRICAL_SURFACE('',#647,0.2);
#34=CYLINDRICAL_SURFACE('',#656,2.1);
#35=FACE_OUTER_BOUND('',#68,.T.);
#36=FACE_OUTER_BOUND('',#69,.T.);
#37=FACE_OUTER_BOUND('',#70,.T.);
#38=FACE_OUTER_BOUND('',#71,.T.);
#39=FACE_OUTER_BOUND('',#72,.T.);
#40=FACE_OUTER_BOUND('',#73,.T.);
#41=FACE_OUTER_BOUND('',#74,.T.);
#42=FACE_OUTER_BOUND('',#75,.T.);
#43=FACE_OUTER_BOUND('',#76,.T.);
#44=FACE_OUTER_BOUND('',#77,.T.);
#45=FACE_OUTER_BOUND('',#78,.T.);
#46=FACE_OUTER_BOUND('',#79,.T.);
#47=FACE_OUTER_BOUND('',#80,.T.);
#48=FACE_OUTER_BOUND('',#81,.T.);
#49=FACE_OUTER_BOUND('',#83,.T.);
#50=FACE_OUTER_BOUND('',#84,.T.);
#51=FACE_OUTER_BOUND('',#85,.T.);
#52=FACE_OUTER_BOUND('',#86,.T.);
#53=FACE_OUTER_BOUND('',#87,.T.);
#54=FACE_OUTER_BOUND('',#88,.T.);
#55=FACE_OUTER_BOUND('',#89,.T.);
#56=FACE_OUTER_BOUND('',#90,.T.);
#57=FACE_OUTER_BOUND('',#91,.T.);
#58=FACE_OUTER_BOUND('',#92,.T.);
#59=FACE_OUTER_BOUND('',#93,.T.);
#60=FACE_OUTER_BOUND('',#94,.T.);
#61=FACE_OUTER_BOUND('',#95,.T.);
#62=FACE_OUTER_BOUND('',#96,.T.);
#63=FACE_OUTER_BOUND('',#97,.T.);
#64=FACE_OUTER_BOUND('',#98,.T.);
#65=FACE_OUTER_BOUND('',#99,.T.);
#66=FACE_OUTER_BOUND('',#100,.T.);
#67=FACE_OUTER_BOUND('',#101,.T.);
#68=EDGE_LOOP('',(#388,#389,#390,#391));
#69=EDGE_LOOP('',(#392,#393,#394,#395));
#70=EDGE_LOOP('',(#396,#397,#398,#399));
#71=EDGE_LOOP('',(#400,#401,#402,#403));
#72=EDGE_LOOP('',(#404,#405,#406,#407));
#73=EDGE_LOOP('',(#408,#409,#410,#411));
#74=EDGE_LOOP('',(#412,#413,#414,#415));
#75=EDGE_LOOP('',(#416,#417,#418,#419));
#76=EDGE_LOOP('',(#420,#421,#422,#423));
#77=EDGE_LOOP('',(#424,#425,#426,#427,#428,#429,#430,#431,#432,#433,#434,
#435));
#78=EDGE_LOOP('',(#436,#437,#438,#439,#440,#441));
#79=EDGE_LOOP('',(#442,#443,#444,#445));
#80=EDGE_LOOP('',(#446,#447,#448,#449));
#81=EDGE_LOOP('',(#450,#451,#452,#453));
#82=EDGE_LOOP('',(#454,#455,#456,#457));
#83=EDGE_LOOP('',(#458,#459,#460,#461));
#84=EDGE_LOOP('',(#462,#463,#464,#465,#466,#467,#468,#469,#470,#471,#472,
#473,#474,#475,#476,#477,#478,#479,#480,#481));
#85=EDGE_LOOP('',(#482,#483,#484,#485));
#86=EDGE_LOOP('',(#486,#487,#488,#489));
#87=EDGE_LOOP('',(#490,#491,#492,#493));
#88=EDGE_LOOP('',(#494,#495,#496,#497));
#89=EDGE_LOOP('',(#498,#499,#500,#501,#502,#503));
#90=EDGE_LOOP('',(#504,#505,#506,#507));
#91=EDGE_LOOP('',(#508,#509,#510,#511));
#92=EDGE_LOOP('',(#512,#513,#514,#515));
#93=EDGE_LOOP('',(#516,#517,#518,#519));
#94=EDGE_LOOP('',(#520,#521,#522,#523));
#95=EDGE_LOOP('',(#524,#525,#526,#527));
#96=EDGE_LOOP('',(#528,#529,#530,#531));
#97=EDGE_LOOP('',(#532,#533,#534,#535));
#98=EDGE_LOOP('',(#536,#537,#538,#539));
#99=EDGE_LOOP('',(#540,#541,#542,#543));
#100=EDGE_LOOP('',(#544,#545,#546,#547));
#101=EDGE_LOOP('',(#548,#549,#550,#551,#552,#553,#554,#555,#556,#557,#558,
#559));
#102=LINE('',#854,#174);
#103=LINE('',#856,#175);
#104=LINE('',#858,#176);
#105=LINE('',#859,#177);
#106=LINE('',#862,#178);
#107=LINE('',#864,#179);
#108=LINE('',#865,#180);
#109=LINE('',#868,#181);
#110=LINE('',#870,#182);
#111=LINE('',#871,#183);
#112=LINE('',#873,#184);
#113=LINE('',#874,#185);
#114=LINE('',#879,#186);
#115=LINE('',#883,#187);
#116=LINE('',#888,#188);
#117=LINE('',#892,#189);
#118=LINE('',#895,#190);
#119=LINE('',#896,#191);
#120=LINE('',#898,#192);
#121=LINE('',#899,#193);
#122=LINE('',#902,#194);
#123=LINE('',#904,#195);
#124=LINE('',#906,#196);
#125=LINE('',#908,#197);
#126=LINE('',#910,#198);
#127=LINE('',#912,#199);
#128=LINE('',#914,#200);
#129=LINE('',#916,#201);
#130=LINE('',#918,#202);
#131=LINE('',#920,#203);
#132=LINE('',#921,#204);
#133=LINE('',#924,#205);
#134=LINE('',#926,#206);
#135=LINE('',#929,#207);
#136=LINE('',#934,#208);
#137=LINE('',#935,#209);
#138=LINE('',#936,#210);
#139=LINE('',#940,#211);
#140=LINE('',#942,#212);
#141=LINE('',#944,#213);
#142=LINE('',#945,#214);
#143=LINE('',#948,#215);
#144=LINE('',#950,#216);
#145=LINE('',#957,#217);
#146=LINE('',#961,#218);
#147=LINE('',#966,#219);
#148=LINE('',#969,#220);
#149=LINE('',#971,#221);
#150=LINE('',#975,#222);
#151=LINE('',#978,#223);
#152=LINE('',#981,#224);
#153=LINE('',#983,#225);
#154=LINE('',#984,#226);
#155=LINE('',#986,#227);
#156=LINE('',#988,#228);
#157=LINE('',#991,#229);
#158=LINE('',#993,#230);
#159=LINE('',#994,#231);
#160=LINE('',#996,#232);
#161=LINE('',#1000,#233);
#162=LINE('',#1001,#234);
#163=LINE('',#1003,#235);
#164=LINE('',#1006,#236);
#165=LINE('',#1007,#237);
#166=LINE('',#1009,#238);
#167=LINE('',#1011,#239);
#168=LINE('',#1013,#240);
#169=LINE('',#1016,#241);
#170=LINE('',#1017,#242);
#171=LINE('',#1021,#243);
#172=LINE('',#1022,#244);
#173=LINE('',#1024,#245);
#174=VECTOR('',#686,10.);
#175=VECTOR('',#687,10.);
#176=VECTOR('',#688,10.);
#177=VECTOR('',#689,10.);
#178=VECTOR('',#692,10.);
#179=VECTOR('',#693,10.);
#180=VECTOR('',#694,10.);
#181=VECTOR('',#697,10.);
#182=VECTOR('',#698,10.);
#183=VECTOR('',#699,10.);
#184=VECTOR('',#702,10.);
#185=VECTOR('',#703,10.);
#186=VECTOR('',#708,10.);
#187=VECTOR('',#711,10.);
#188=VECTOR('',#716,10.);
#189=VECTOR('',#719,10.);
#190=VECTOR('',#724,10.);
#191=VECTOR('',#725,10.);
#192=VECTOR('',#728,10.);
#193=VECTOR('',#729,10.);
#194=VECTOR('',#732,10.);
#195=VECTOR('',#733,10.);
#196=VECTOR('',#734,10.);
#197=VECTOR('',#735,10.);
#198=VECTOR('',#736,10.);
#199=VECTOR('',#737,10.);
#200=VECTOR('',#738,10.);
#201=VECTOR('',#739,10.);
#202=VECTOR('',#740,10.);
#203=VECTOR('',#741,10.);
#204=VECTOR('',#742,10.);
#205=VECTOR('',#745,10.);
#206=VECTOR('',#746,10.);
#207=VECTOR('',#749,10.);
#208=VECTOR('',#754,10.);
#209=VECTOR('',#755,10.);
#210=VECTOR('',#756,10.);
#211=VECTOR('',#759,10.);
#212=VECTOR('',#760,10.);
#213=VECTOR('',#761,10.);
#214=VECTOR('',#762,10.);
#215=VECTOR('',#765,10.);
#216=VECTOR('',#766,10.);
#217=VECTOR('',#773,10.);
#218=VECTOR('',#776,10.);
#219=VECTOR('',#781,10.);
#220=VECTOR('',#784,10.);
#221=VECTOR('',#785,10.);
#222=VECTOR('',#788,10.);
#223=VECTOR('',#791,10.);
#224=VECTOR('',#794,10.);
#225=VECTOR('',#797,10.);
#226=VECTOR('',#798,10.);
#227=VECTOR('',#801,10.);
#228=VECTOR('',#804,10.);
#229=VECTOR('',#807,10.);
#230=VECTOR('',#808,10.);
#231=VECTOR('',#809,10.);
#232=VECTOR('',#812,10.);
#233=VECTOR('',#817,10.);
#234=VECTOR('',#818,10.);
#235=VECTOR('',#821,10.);
#236=VECTOR('',#824,10.);
#237=VECTOR('',#825,10.);
#238=VECTOR('',#828,10.);
#239=VECTOR('',#831,10.);
#240=VECTOR('',#834,10.);
#241=VECTOR('',#837,10.);
#242=VECTOR('',#838,10.);
#243=VECTOR('',#843,10.);
#244=VECTOR('',#844,10.);
#245=VECTOR('',#847,10.);
#246=VERTEX_POINT('',#852);
#247=VERTEX_POINT('',#853);
#248=VERTEX_POINT('',#855);
#249=VERTEX_POINT('',#857);
#250=VERTEX_POINT('',#861);
#251=VERTEX_POINT('',#863);
#252=VERTEX_POINT('',#867);
#253=VERTEX_POINT('',#869);
#254=VERTEX_POINT('',#877);
#255=VERTEX_POINT('',#878);
#256=VERTEX_POINT('',#880);
#257=VERTEX_POINT('',#882);
#258=VERTEX_POINT('',#886);
#259=VERTEX_POINT('',#887);
#260=VERTEX_POINT('',#889);
#261=VERTEX_POINT('',#891);
#262=VERTEX_POINT('',#901);
#263=VERTEX_POINT('',#903);
#264=VERTEX_POINT('',#905);
#265=VERTEX_POINT('',#907);
#266=VERTEX_POINT('',#909);
#267=VERTEX_POINT('',#911);
#268=VERTEX_POINT('',#913);
#269=VERTEX_POINT('',#915);
#270=VERTEX_POINT('',#917);
#271=VERTEX_POINT('',#919);
#272=VERTEX_POINT('',#923);
#273=VERTEX_POINT('',#925);
#274=VERTEX_POINT('',#927);
#275=VERTEX_POINT('',#932);
#276=VERTEX_POINT('',#933);
#277=VERTEX_POINT('',#938);
#278=VERTEX_POINT('',#939);
#279=VERTEX_POINT('',#941);
#280=VERTEX_POINT('',#943);
#281=VERTEX_POINT('',#947);
#282=VERTEX_POINT('',#949);
#283=VERTEX_POINT('',#953);
#284=VERTEX_POINT('',#954);
#285=VERTEX_POINT('',#956);
#286=VERTEX_POINT('',#958);
#287=VERTEX_POINT('',#960);
#288=VERTEX_POINT('',#963);
#289=VERTEX_POINT('',#965);
#290=VERTEX_POINT('',#967);
#291=VERTEX_POINT('',#970);
#292=VERTEX_POINT('',#972);
#293=VERTEX_POINT('',#974);
#294=VERTEX_POINT('',#977);
#295=VERTEX_POINT('',#979);
#296=VERTEX_POINT('',#990);
#297=VERTEX_POINT('',#992);
#298=VERTEX_POINT('',#999);
#299=VERTEX_POINT('',#1005);
#300=VERTEX_POINT('',#1015);
#301=VERTEX_POINT('',#1020);
#302=EDGE_CURVE('',#246,#247,#102,.T.);
#303=EDGE_CURVE('',#246,#248,#103,.T.);
#304=EDGE_CURVE('',#249,#248,#104,.T.);
#305=EDGE_CURVE('',#247,#249,#105,.T.);
#306=EDGE_CURVE('',#247,#250,#106,.T.);
#307=EDGE_CURVE('',#251,#249,#107,.T.);
#308=EDGE_CURVE('',#250,#251,#108,.T.);
#309=EDGE_CURVE('',#250,#252,#109,.T.);
#310=EDGE_CURVE('',#253,#251,#110,.T.);
#311=EDGE_CURVE('',#252,#253,#111,.T.);
#312=EDGE_CURVE('',#252,#246,#112,.T.);
#313=EDGE_CURVE('',#248,#253,#113,.T.);
#314=EDGE_CURVE('',#254,#255,#114,.T.);
#315=EDGE_CURVE('',#255,#256,#26,.T.);
#316=EDGE_CURVE('',#256,#257,#115,.T.);
#317=EDGE_CURVE('',#257,#254,#27,.T.);
#318=EDGE_CURVE('',#258,#259,#116,.T.);
#319=EDGE_CURVE('',#259,#260,#28,.T.);
#320=EDGE_CURVE('',#260,#261,#117,.T.);
#321=EDGE_CURVE('',#261,#258,#29,.T.);
#322=EDGE_CURVE('',#255,#260,#118,.T.);
#323=EDGE_CURVE('',#259,#256,#119,.T.);
#324=EDGE_CURVE('',#261,#254,#120,.T.);
#325=EDGE_CURVE('',#257,#258,#121,.T.);
#326=EDGE_CURVE('',#261,#262,#122,.T.);
#327=EDGE_CURVE('',#262,#263,#123,.T.);
#328=EDGE_CURVE('',#263,#264,#124,.T.);
#329=EDGE_CURVE('',#264,#265,#125,.T.);
#330=EDGE_CURVE('',#265,#266,#126,.T.);
#331=EDGE_CURVE('',#267,#266,#127,.T.);
#332=EDGE_CURVE('',#267,#268,#128,.T.);
#333=EDGE_CURVE('',#268,#269,#129,.T.);
#334=EDGE_CURVE('',#269,#270,#130,.T.);
#335=EDGE_CURVE('',#270,#271,#131,.T.);
#336=EDGE_CURVE('',#271,#254,#132,.T.);
#337=EDGE_CURVE('',#272,#260,#133,.T.);
#338=EDGE_CURVE('',#273,#272,#134,.T.);
#339=EDGE_CURVE('',#273,#274,#16,.T.);
#340=EDGE_CURVE('',#274,#262,#135,.T.);
#341=EDGE_CURVE('',#275,#276,#136,.T.);
#342=EDGE_CURVE('',#267,#276,#137,.T.);
#343=EDGE_CURVE('',#275,#266,#138,.T.);
#344=EDGE_CURVE('',#277,#278,#139,.T.);
#345=EDGE_CURVE('',#279,#278,#140,.T.);
#346=EDGE_CURVE('',#280,#279,#141,.T.);
#347=EDGE_CURVE('',#277,#280,#142,.T.);
#348=EDGE_CURVE('',#281,#280,#143,.T.);
#349=EDGE_CURVE('',#282,#281,#144,.T.);
#350=EDGE_CURVE('',#282,#277,#17,.T.);
#351=EDGE_CURVE('',#283,#284,#18,.T.);
#352=EDGE_CURVE('',#285,#283,#145,.T.);
#353=EDGE_CURVE('',#286,#285,#19,.T.);
#354=EDGE_CURVE('',#287,#286,#146,.T.);
#355=EDGE_CURVE('',#276,#287,#20,.T.);
#356=EDGE_CURVE('',#288,#275,#21,.T.);
#357=EDGE_CURVE('',#289,#288,#147,.T.);
#358=EDGE_CURVE('',#290,#289,#22,.T.);
#359=EDGE_CURVE('',#274,#290,#148,.T.);
#360=EDGE_CURVE('',#291,#273,#149,.T.);
#361=EDGE_CURVE('',#292,#291,#23,.T.);
#362=EDGE_CURVE('',#293,#292,#150,.T.);
#363=EDGE_CURVE('',#278,#293,#24,.T.);
#364=EDGE_CURVE('',#294,#282,#151,.T.);
#365=EDGE_CURVE('',#295,#294,#25,.T.);
#366=EDGE_CURVE('',#284,#295,#152,.T.);
#367=EDGE_CURVE('',#286,#269,#153,.T.);
#368=EDGE_CURVE('',#287,#268,#154,.T.);
#369=EDGE_CURVE('',#285,#270,#155,.T.);
#370=EDGE_CURVE('',#283,#271,#156,.T.);
#371=EDGE_CURVE('',#296,#295,#157,.T.);
#372=EDGE_CURVE('',#297,#296,#158,.T.);
#373=EDGE_CURVE('',#284,#297,#159,.T.);
#374=EDGE_CURVE('',#255,#297,#160,.T.);
#375=EDGE_CURVE('',#298,#281,#161,.T.);
#376=EDGE_CURVE('',#294,#298,#162,.T.);
#377=EDGE_CURVE('',#296,#298,#163,.T.);
#378=EDGE_CURVE('',#293,#299,#164,.T.);
#379=EDGE_CURVE('',#279,#299,#165,.T.);
#380=EDGE_CURVE('',#290,#263,#166,.T.);
#381=EDGE_CURVE('',#289,#264,#167,.T.);
#382=EDGE_CURVE('',#288,#265,#168,.T.);
#383=EDGE_CURVE('',#300,#292,#169,.T.);
#384=EDGE_CURVE('',#299,#300,#170,.T.);
#385=EDGE_CURVE('',#301,#272,#171,.T.);
#386=EDGE_CURVE('',#291,#301,#172,.T.);
#387=EDGE_CURVE('',#300,#301,#173,.T.);
#388=ORIENTED_EDGE('',*,*,#302,.F.);
#389=ORIENTED_EDGE('',*,*,#303,.T.);
#390=ORIENTED_EDGE('',*,*,#304,.F.);
#391=ORIENTED_EDGE('',*,*,#305,.F.);
#392=ORIENTED_EDGE('',*,*,#306,.F.);
#393=ORIENTED_EDGE('',*,*,#305,.T.);
#394=ORIENTED_EDGE('',*,*,#307,.F.);
#395=ORIENTED_EDGE('',*,*,#308,.F.);
#396=ORIENTED_EDGE('',*,*,#309,.F.);
#397=ORIENTED_EDGE('',*,*,#308,.T.);
#398=ORIENTED_EDGE('',*,*,#310,.F.);
#399=ORIENTED_EDGE('',*,*,#311,.F.);
#400=ORIENTED_EDGE('',*,*,#312,.F.);
#401=ORIENTED_EDGE('',*,*,#311,.T.);
#402=ORIENTED_EDGE('',*,*,#313,.F.);
#403=ORIENTED_EDGE('',*,*,#303,.F.);
#404=ORIENTED_EDGE('',*,*,#313,.T.);
#405=ORIENTED_EDGE('',*,*,#310,.T.);
#406=ORIENTED_EDGE('',*,*,#307,.T.);
#407=ORIENTED_EDGE('',*,*,#304,.T.);
#408=ORIENTED_EDGE('',*,*,#314,.T.);
#409=ORIENTED_EDGE('',*,*,#315,.T.);
#410=ORIENTED_EDGE('',*,*,#316,.T.);
#411=ORIENTED_EDGE('',*,*,#317,.T.);
#412=ORIENTED_EDGE('',*,*,#318,.T.);
#413=ORIENTED_EDGE('',*,*,#319,.T.);
#414=ORIENTED_EDGE('',*,*,#320,.T.);
#415=ORIENTED_EDGE('',*,*,#321,.T.);
#416=ORIENTED_EDGE('',*,*,#322,.T.);
#417=ORIENTED_EDGE('',*,*,#319,.F.);
#418=ORIENTED_EDGE('',*,*,#323,.T.);
#419=ORIENTED_EDGE('',*,*,#315,.F.);
#420=ORIENTED_EDGE('',*,*,#324,.T.);
#421=ORIENTED_EDGE('',*,*,#317,.F.);
#422=ORIENTED_EDGE('',*,*,#325,.T.);
#423=ORIENTED_EDGE('',*,*,#321,.F.);
#424=ORIENTED_EDGE('',*,*,#324,.F.);
#425=ORIENTED_EDGE('',*,*,#326,.T.);
#426=ORIENTED_EDGE('',*,*,#327,.T.);
#427=ORIENTED_EDGE('',*,*,#328,.T.);
#428=ORIENTED_EDGE('',*,*,#329,.T.);
#429=ORIENTED_EDGE('',*,*,#330,.T.);
#430=ORIENTED_EDGE('',*,*,#331,.F.);
#431=ORIENTED_EDGE('',*,*,#332,.T.);
#432=ORIENTED_EDGE('',*,*,#333,.T.);
#433=ORIENTED_EDGE('',*,*,#334,.T.);
#434=ORIENTED_EDGE('',*,*,#335,.T.);
#435=ORIENTED_EDGE('',*,*,#336,.T.);
#436=ORIENTED_EDGE('',*,*,#320,.F.);
#437=ORIENTED_EDGE('',*,*,#337,.F.);
#438=ORIENTED_EDGE('',*,*,#338,.F.);
#439=ORIENTED_EDGE('',*,*,#339,.T.);
#440=ORIENTED_EDGE('',*,*,#340,.T.);
#441=ORIENTED_EDGE('',*,*,#326,.F.);
#442=ORIENTED_EDGE('',*,*,#318,.F.);
#443=ORIENTED_EDGE('',*,*,#325,.F.);
#444=ORIENTED_EDGE('',*,*,#316,.F.);
#445=ORIENTED_EDGE('',*,*,#323,.F.);
#446=ORIENTED_EDGE('',*,*,#341,.T.);
#447=ORIENTED_EDGE('',*,*,#342,.F.);
#448=ORIENTED_EDGE('',*,*,#331,.T.);
#449=ORIENTED_EDGE('',*,*,#343,.F.);
#450=ORIENTED_EDGE('',*,*,#344,.T.);
#451=ORIENTED_EDGE('',*,*,#345,.F.);
#452=ORIENTED_EDGE('',*,*,#346,.F.);
#453=ORIENTED_EDGE('',*,*,#347,.F.);
#454=ORIENTED_EDGE('',*,*,#302,.T.);
#455=ORIENTED_EDGE('',*,*,#306,.T.);
#456=ORIENTED_EDGE('',*,*,#309,.T.);
#457=ORIENTED_EDGE('',*,*,#312,.T.);
#458=ORIENTED_EDGE('',*,*,#347,.T.);
#459=ORIENTED_EDGE('',*,*,#348,.F.);
#460=ORIENTED_EDGE('',*,*,#349,.F.);
#461=ORIENTED_EDGE('',*,*,#350,.T.);
#462=ORIENTED_EDGE('',*,*,#351,.F.);
#463=ORIENTED_EDGE('',*,*,#352,.F.);
#464=ORIENTED_EDGE('',*,*,#353,.F.);
#465=ORIENTED_EDGE('',*,*,#354,.F.);
#466=ORIENTED_EDGE('',*,*,#355,.F.);
#467=ORIENTED_EDGE('',*,*,#341,.F.);
#468=ORIENTED_EDGE('',*,*,#356,.F.);
#469=ORIENTED_EDGE('',*,*,#357,.F.);
#470=ORIENTED_EDGE('',*,*,#358,.F.);
#471=ORIENTED_EDGE('',*,*,#359,.F.);
#472=ORIENTED_EDGE('',*,*,#339,.F.);
#473=ORIENTED_EDGE('',*,*,#360,.F.);
#474=ORIENTED_EDGE('',*,*,#361,.F.);
#475=ORIENTED_EDGE('',*,*,#362,.F.);
#476=ORIENTED_EDGE('',*,*,#363,.F.);
#477=ORIENTED_EDGE('',*,*,#344,.F.);
#478=ORIENTED_EDGE('',*,*,#350,.F.);
#479=ORIENTED_EDGE('',*,*,#364,.F.);
#480=ORIENTED_EDGE('',*,*,#365,.F.);
#481=ORIENTED_EDGE('',*,*,#366,.F.);
#482=ORIENTED_EDGE('',*,*,#354,.T.);
#483=ORIENTED_EDGE('',*,*,#367,.T.);
#484=ORIENTED_EDGE('',*,*,#333,.F.);
#485=ORIENTED_EDGE('',*,*,#368,.F.);
#486=ORIENTED_EDGE('',*,*,#353,.T.);
#487=ORIENTED_EDGE('',*,*,#369,.T.);
#488=ORIENTED_EDGE('',*,*,#334,.F.);
#489=ORIENTED_EDGE('',*,*,#367,.F.);
#490=ORIENTED_EDGE('',*,*,#352,.T.);
#491=ORIENTED_EDGE('',*,*,#370,.T.);
#492=ORIENTED_EDGE('',*,*,#335,.F.);
#493=ORIENTED_EDGE('',*,*,#369,.F.);
#494=ORIENTED_EDGE('',*,*,#371,.F.);
#495=ORIENTED_EDGE('',*,*,#372,.F.);
#496=ORIENTED_EDGE('',*,*,#373,.F.);
#497=ORIENTED_EDGE('',*,*,#366,.T.);
#498=ORIENTED_EDGE('',*,*,#314,.F.);
#499=ORIENTED_EDGE('',*,*,#336,.F.);
#500=ORIENTED_EDGE('',*,*,#370,.F.);
#501=ORIENTED_EDGE('',*,*,#351,.T.);
#502=ORIENTED_EDGE('',*,*,#373,.T.);
#503=ORIENTED_EDGE('',*,*,#374,.F.);
#504=ORIENTED_EDGE('',*,*,#342,.T.);
#505=ORIENTED_EDGE('',*,*,#355,.T.);
#506=ORIENTED_EDGE('',*,*,#368,.T.);
#507=ORIENTED_EDGE('',*,*,#332,.F.);
#508=ORIENTED_EDGE('',*,*,#349,.T.);
#509=ORIENTED_EDGE('',*,*,#375,.F.);
#510=ORIENTED_EDGE('',*,*,#376,.F.);
#511=ORIENTED_EDGE('',*,*,#364,.T.);
#512=ORIENTED_EDGE('',*,*,#376,.T.);
#513=ORIENTED_EDGE('',*,*,#377,.F.);
#514=ORIENTED_EDGE('',*,*,#371,.T.);
#515=ORIENTED_EDGE('',*,*,#365,.T.);
#516=ORIENTED_EDGE('',*,*,#345,.T.);
#517=ORIENTED_EDGE('',*,*,#363,.T.);
#518=ORIENTED_EDGE('',*,*,#378,.T.);
#519=ORIENTED_EDGE('',*,*,#379,.F.);
#520=ORIENTED_EDGE('',*,*,#359,.T.);
#521=ORIENTED_EDGE('',*,*,#380,.T.);
#522=ORIENTED_EDGE('',*,*,#327,.F.);
#523=ORIENTED_EDGE('',*,*,#340,.F.);
#524=ORIENTED_EDGE('',*,*,#358,.T.);
#525=ORIENTED_EDGE('',*,*,#381,.T.);
#526=ORIENTED_EDGE('',*,*,#328,.F.);
#527=ORIENTED_EDGE('',*,*,#380,.F.);
#528=ORIENTED_EDGE('',*,*,#357,.T.);
#529=ORIENTED_EDGE('',*,*,#382,.T.);
#530=ORIENTED_EDGE('',*,*,#329,.F.);
#531=ORIENTED_EDGE('',*,*,#381,.F.);
#532=ORIENTED_EDGE('',*,*,#383,.F.);
#533=ORIENTED_EDGE('',*,*,#384,.F.);
#534=ORIENTED_EDGE('',*,*,#378,.F.);
#535=ORIENTED_EDGE('',*,*,#362,.T.);
#536=ORIENTED_EDGE('',*,*,#343,.T.);
#537=ORIENTED_EDGE('',*,*,#330,.F.);
#538=ORIENTED_EDGE('',*,*,#382,.F.);
#539=ORIENTED_EDGE('',*,*,#356,.T.);
#540=ORIENTED_EDGE('',*,*,#338,.T.);
#541=ORIENTED_EDGE('',*,*,#385,.F.);
#542=ORIENTED_EDGE('',*,*,#386,.F.);
#543=ORIENTED_EDGE('',*,*,#360,.T.);
#544=ORIENTED_EDGE('',*,*,#386,.T.);
#545=ORIENTED_EDGE('',*,*,#387,.F.);
#546=ORIENTED_EDGE('',*,*,#383,.T.);
#547=ORIENTED_EDGE('',*,*,#361,.T.);
#548=ORIENTED_EDGE('',*,*,#322,.F.);
#549=ORIENTED_EDGE('',*,*,#374,.T.);
#550=ORIENTED_EDGE('',*,*,#372,.T.);
#551=ORIENTED_EDGE('',*,*,#377,.T.);
#552=ORIENTED_EDGE('',*,*,#375,.T.);
#553=ORIENTED_EDGE('',*,*,#348,.T.);
#554=ORIENTED_EDGE('',*,*,#346,.T.);
#555=ORIENTED_EDGE('',*,*,#379,.T.);
#556=ORIENTED_EDGE('',*,*,#384,.T.);
#557=ORIENTED_EDGE('',*,*,#387,.T.);
#558=ORIENTED_EDGE('',*,*,#385,.T.);
#559=ORIENTED_EDGE('',*,*,#337,.T.);
#560=PLANE('',#635);
#561=PLANE('',#636);
#562=PLANE('',#637);
#563=PLANE('',#638);
#564=PLANE('',#639);
#565=PLANE('',#648);
#566=PLANE('',#649);
#567=PLANE('',#651);
#568=PLANE('',#652);
#569=PLANE('',#653);
#570=PLANE('',#654);
#571=PLANE('',#665);
#572=PLANE('',#666);
#573=PLANE('',#667);
#574=PLANE('',#668);
#575=PLANE('',#669);
#576=PLANE('',#670);
#577=PLANE('',#671);
#578=PLANE('',#672);
#579=PLANE('',#673);
#580=PLANE('',#674);
#581=PLANE('',#675);
#582=PLANE('',#676);
#583=PLANE('',#677);
#584=PLANE('',#678);
#585=PLANE('',#679);
#586=PLANE('',#680);
#587=PLANE('',#681);
#588=ADVANCED_FACE('',(#35),#560,.T.);
#589=ADVANCED_FACE('',(#36),#561,.T.);
#590=ADVANCED_FACE('',(#37),#562,.T.);
#591=ADVANCED_FACE('',(#38),#563,.T.);
#592=ADVANCED_FACE('',(#39),#564,.T.);
#593=ADVANCED_FACE('',(#40),#30,.T.);
#594=ADVANCED_FACE('',(#41),#31,.T.);
#595=ADVANCED_FACE('',(#42),#32,.T.);
#596=ADVANCED_FACE('',(#43),#33,.T.);
#597=ADVANCED_FACE('',(#44),#565,.T.);
#598=ADVANCED_FACE('',(#45),#566,.T.);
#599=ADVANCED_FACE('',(#46),#567,.T.);
#600=ADVANCED_FACE('',(#47),#568,.T.);
#601=ADVANCED_FACE('',(#48,#15),#569,.T.);
#602=ADVANCED_FACE('',(#49),#570,.T.);
#603=ADVANCED_FACE('',(#50),#34,.F.);
#604=ADVANCED_FACE('',(#51),#571,.T.);
#605=ADVANCED_FACE('',(#52),#572,.T.);
#606=ADVANCED_FACE('',(#53),#573,.T.);
#607=ADVANCED_FACE('',(#54),#574,.T.);
#608=ADVANCED_FACE('',(#55),#575,.T.);
#609=ADVANCED_FACE('',(#56),#576,.T.);
#610=ADVANCED_FACE('',(#57),#577,.T.);
#611=ADVANCED_FACE('',(#58),#578,.T.);
#612=ADVANCED_FACE('',(#59),#579,.T.);
#613=ADVANCED_FACE('',(#60),#580,.T.);
#614=ADVANCED_FACE('',(#61),#581,.T.);
#615=ADVANCED_FACE('',(#62),#582,.T.);
#616=ADVANCED_FACE('',(#63),#583,.T.);
#617=ADVANCED_FACE('',(#64),#584,.T.);
#618=ADVANCED_FACE('',(#65),#585,.T.);
#619=ADVANCED_FACE('',(#66),#586,.T.);
#620=ADVANCED_FACE('',(#67),#587,.T.);
#621=CLOSED_SHELL('',(#588,#589,#590,#591,#592,#593,#594,#595,#596,#597,
#598,#599,#600,#601,#602,#603,#604,#605,#606,#607,#608,#609,#610,#611,#612,
#613,#614,#615,#616,#617,#618,#619,#620));
#622=DERIVED_UNIT_ELEMENT(#624,1.);
#623=DERIVED_UNIT_ELEMENT(#1031,-3.);
#624=(
MASS_UNIT()
NAMED_UNIT(*)
SI_UNIT(.KILO.,.GRAM.)
);
#625=DERIVED_UNIT((#622,#623));
#626=MEASURE_REPRESENTATION_ITEM('density measure',
POSITIVE_RATIO_MEASURE(7850.),#625);
#627=PROPERTY_DEFINITION_REPRESENTATION(#632,#629);
#628=PROPERTY_DEFINITION_REPRESENTATION(#633,#630);
#629=REPRESENTATION('material name',(#631),#1028);
#630=REPRESENTATION('density',(#626),#1028);
#631=DESCRIPTIVE_REPRESENTATION_ITEM('Steel','Steel');
#632=PROPERTY_DEFINITION('material property','material name',#1038);
#633=PROPERTY_DEFINITION('material property','density of part',#1038);
#634=AXIS2_PLACEMENT_3D('',#850,#682,#683);
#635=AXIS2_PLACEMENT_3D('',#851,#684,#685);
#636=AXIS2_PLACEMENT_3D('',#860,#690,#691);
#637=AXIS2_PLACEMENT_3D('',#866,#695,#696);
#638=AXIS2_PLACEMENT_3D('',#872,#700,#701);
#639=AXIS2_PLACEMENT_3D('',#875,#704,#705);
#640=AXIS2_PLACEMENT_3D('',#876,#706,#707);
#641=AXIS2_PLACEMENT_3D('',#881,#709,#710);
#642=AXIS2_PLACEMENT_3D('',#884,#712,#713);
#643=AXIS2_PLACEMENT_3D('',#885,#714,#715);
#644=AXIS2_PLACEMENT_3D('',#890,#717,#718);
#645=AXIS2_PLACEMENT_3D('',#893,#720,#721);
#646=AXIS2_PLACEMENT_3D('',#894,#722,#723);
#647=AXIS2_PLACEMENT_3D('',#897,#726,#727);
#648=AXIS2_PLACEMENT_3D('',#900,#730,#731);
#649=AXIS2_PLACEMENT_3D('',#922,#743,#744);
#650=AXIS2_PLACEMENT_3D('',#928,#747,#748);
#651=AXIS2_PLACEMENT_3D('',#930,#750,#751);
#652=AXIS2_PLACEMENT_3D('',#931,#752,#753);
#653=AXIS2_PLACEMENT_3D('',#937,#757,#758);
#654=AXIS2_PLACEMENT_3D('',#946,#763,#764);
#655=AXIS2_PLACEMENT_3D('',#951,#767,#768);
#656=AXIS2_PLACEMENT_3D('',#952,#769,#770);
#657=AXIS2_PLACEMENT_3D('',#955,#771,#772);
#658=AXIS2_PLACEMENT_3D('',#959,#774,#775);
#659=AXIS2_PLACEMENT_3D('',#962,#777,#778);
#660=AXIS2_PLACEMENT_3D('',#964,#779,#780);
#661=AXIS2_PLACEMENT_3D('',#968,#782,#783);
#662=AXIS2_PLACEMENT_3D('',#973,#786,#787);
#663=AXIS2_PLACEMENT_3D('',#976,#789,#790);
#664=AXIS2_PLACEMENT_3D('',#980,#792,#793);
#665=AXIS2_PLACEMENT_3D('',#982,#795,#796);
#666=AXIS2_PLACEMENT_3D('',#985,#799,#800);
#667=AXIS2_PLACEMENT_3D('',#987,#802,#803);
#668=AXIS2_PLACEMENT_3D('',#989,#805,#806);
#669=AXIS2_PLACEMENT_3D('',#995,#810,#811);
#670=AXIS2_PLACEMENT_3D('',#997,#813,#814);
#671=AXIS2_PLACEMENT_3D('',#998,#815,#816);
#672=AXIS2_PLACEMENT_3D('',#1002,#819,#820);
#673=AXIS2_PLACEMENT_3D('',#1004,#822,#823);
#674=AXIS2_PLACEMENT_3D('',#1008,#826,#827);
#675=AXIS2_PLACEMENT_3D('',#1010,#829,#830);
#676=AXIS2_PLACEMENT_3D('',#1012,#832,#833);
#677=AXIS2_PLACEMENT_3D('',#1014,#835,#836);
#678=AXIS2_PLACEMENT_3D('',#1018,#839,#840);
#679=AXIS2_PLACEMENT_3D('',#1019,#841,#842);
#680=AXIS2_PLACEMENT_3D('',#1023,#845,#846);
#681=AXIS2_PLACEMENT_3D('',#1025,#848,#849);
#682=DIRECTION('axis',(0.,0.,1.));
#683=DIRECTION('refdir',(1.,0.,0.));
#684=DIRECTION('center_axis',(0.,1.,0.));
#685=DIRECTION('ref_axis',(1.,0.,0.));
#686=DIRECTION('',(-1.,0.,0.));
#687=DIRECTION('',(0.,0.,-1.));
#688=DIRECTION('',(1.,0.,0.));
#689=DIRECTION('',(0.,0.,-1.));
#690=DIRECTION('center_axis',(-1.,0.,0.));
#691=DIRECTION('ref_axis',(0.,1.,0.));
#692=DIRECTION('',(0.,-1.,0.));
#693=DIRECTION('',(0.,1.,0.));
#694=DIRECTION('',(0.,0.,-1.));
#695=DIRECTION('center_axis',(0.,-1.,0.));
#696=DIRECTION('ref_axis',(-1.,0.,0.));
#697=DIRECTION('',(1.,0.,0.));
#698=DIRECTION('',(-1.,0.,0.));
#699=DIRECTION('',(0.,0.,-1.));
#700=DIRECTION('center_axis',(1.,0.,0.));
#701=DIRECTION('ref_axis',(0.,-1.,0.));
#702=DIRECTION('',(0.,1.,0.));
#703=DIRECTION('',(0.,-1.,0.));
#704=DIRECTION('center_axis',(0.,0.,-1.));
#705=DIRECTION('ref_axis',(-1.,0.,0.));
#706=DIRECTION('center_axis',(-1.,0.,0.));
#707=DIRECTION('ref_axis',(0.,0.70710678118654,0.707106781186555));
#708=DIRECTION('',(-1.,0.,0.));
#709=DIRECTION('center_axis',(0.707106781186548,0.707106781186548,1.57009245868377E-14));
#710=DIRECTION('ref_axis',(0.707106781186547,-0.707106781186547,-1.57009245868377E-14));
#711=DIRECTION('',(1.,0.,0.));
#712=DIRECTION('center_axis',(-0.707106781186548,0.707106781186548,1.57009245868377E-14));
#713=DIRECTION('ref_axis',(0.707106781186547,0.707106781186547,1.57009245868377E-14));
#714=DIRECTION('center_axis',(-1.,0.,0.));
#715=DIRECTION('ref_axis',(0.,-0.70710678118654,0.707106781186555));
#716=DIRECTION('',(-1.,0.,0.));
#717=DIRECTION('center_axis',(0.707106781186548,-0.707106781186548,0.));
#718=DIRECTION('ref_axis',(0.707106781186547,0.707106781186547,0.));
#719=DIRECTION('',(1.,0.,0.));
#720=DIRECTION('center_axis',(-0.707106781186548,-0.707106781186548,0.));
#721=DIRECTION('ref_axis',(0.707106781186547,-0.707106781186547,0.));
#722=DIRECTION('center_axis',(0.,1.,-2.26579993457322E-32));
#723=DIRECTION('ref_axis',(-0.70710678118654,0.,0.707106781186555));
#724=DIRECTION('',(0.,-1.,2.26579993457322E-32));
#725=DIRECTION('',(0.,1.,-2.26579993457322E-32));
#726=DIRECTION('center_axis',(0.,-1.,2.26579993457322E-32));
#727=DIRECTION('ref_axis',(0.70710678118654,0.,0.707106781186555));
#728=DIRECTION('',(0.,1.,-2.26579993457322E-32));
#729=DIRECTION('',(0.,-1.,2.26579993457322E-32));
#730=DIRECTION('center_axis',(1.,0.,0.));
#731=DIRECTION('ref_axis',(0.,0.,-1.));
#732=DIRECTION('',(0.,0.,-1.));
#733=DIRECTION('',(0.,1.,0.));
#734=DIRECTION('',(0.,0.,1.));
#735=DIRECTION('',(0.,1.,0.));
#736=DIRECTION('',(0.,0.,1.));
#737=DIRECTION('',(0.,-1.,0.));
#738=DIRECTION('',(0.,0.,-1.));
#739=DIRECTION('',(0.,1.,0.));
#740=DIRECTION('',(0.,0.,-1.));
#741=DIRECTION('',(0.,1.,0.));
#742=DIRECTION('',(0.,0.,1.));
#743=DIRECTION('center_axis',(0.,-1.,0.));
#744=DIRECTION('ref_axis',(0.,0.,1.));
#745=DIRECTION('',(0.,0.,1.));
#746=DIRECTION('',(-1.,0.,0.));
#747=DIRECTION('center_axis',(0.,1.,0.));
#748=DIRECTION('ref_axis',(1.,0.,0.));
#749=DIRECTION('',(1.,0.,0.));
#750=DIRECTION('center_axis',(0.,2.26579993457322E-32,1.));
#751=DIRECTION('ref_axis',(0.,1.,-2.26579993457322E-32));
#752=DIRECTION('center_axis',(0.,0.,-1.));
#753=DIRECTION('ref_axis',(1.,0.,0.));
#754=DIRECTION('',(0.,1.,0.));
#755=DIRECTION('',(-1.,0.,0.));
#756=DIRECTION('',(1.,0.,0.));
#757=DIRECTION('center_axis',(0.,0.,-1.));
#758=DIRECTION('ref_axis',(1.,0.,0.));
#759=DIRECTION('',(0.,-1.,0.));
#760=DIRECTION('',(1.,0.,0.));
#761=DIRECTION('',(0.,-1.,0.));
#762=DIRECTION('',(-1.,0.,0.));
#763=DIRECTION('center_axis',(0.,-1.,0.));
#764=DIRECTION('ref_axis',(0.,0.,1.));
#765=DIRECTION('',(0.,0.,1.));
#766=DIRECTION('',(-1.,0.,0.));
#767=DIRECTION('center_axis',(0.,1.,0.));
#768=DIRECTION('ref_axis',(1.,0.,0.));
#769=DIRECTION('center_axis',(0.,1.,0.));
#770=DIRECTION('ref_axis',(-1.83697019872103E-16,0.,1.));
#771=DIRECTION('center_axis',(0.,-1.,0.));
#772=DIRECTION('ref_axis',(1.,0.,0.));
#773=DIRECTION('',(0.,1.,0.));
#774=DIRECTION('center_axis',(0.,1.,0.));
#775=DIRECTION('ref_axis',(1.,0.,0.));
#776=DIRECTION('',(0.,1.,0.));
#777=DIRECTION('center_axis',(0.,1.,0.));
#778=DIRECTION('ref_axis',(1.,0.,0.));
#779=DIRECTION('center_axis',(0.,-1.,0.));
#780=DIRECTION('ref_axis',(1.,0.,0.));
#781=DIRECTION('',(0.,1.,0.));
#782=DIRECTION('center_axis',(0.,-1.,0.));
#783=DIRECTION('ref_axis',(1.,0.,0.));
#784=DIRECTION('',(0.,1.,0.));
#785=DIRECTION('',(0.,-1.,0.));
#786=DIRECTION('center_axis',(0.,-1.,0.));
#787=DIRECTION('ref_axis',(1.,0.,0.));
#788=DIRECTION('',(0.,-1.,0.));
#789=DIRECTION('center_axis',(0.,-1.,0.));
#790=DIRECTION('ref_axis',(1.,0.,0.));
#791=DIRECTION('',(0.,-1.,0.));
#792=DIRECTION('center_axis',(0.,1.,0.));
#793=DIRECTION('ref_axis',(1.,0.,0.));
#794=DIRECTION('',(0.,-1.,0.));
#795=DIRECTION('center_axis',(0.,0.,-1.));
#796=DIRECTION('ref_axis',(0.,1.,0.));
#797=DIRECTION('',(1.,0.,0.));
#798=DIRECTION('',(1.,0.,0.));
#799=DIRECTION('center_axis',(0.,-1.,0.));
#800=DIRECTION('ref_axis',(0.,0.,-1.));
#801=DIRECTION('',(1.,0.,0.));
#802=DIRECTION('center_axis',(0.,0.,-1.));
#803=DIRECTION('ref_axis',(0.,1.,0.));
#804=DIRECTION('',(1.,0.,0.));
#805=DIRECTION('center_axis',(0.,0.,-1.));
#806=DIRECTION('ref_axis',(0.,-1.,0.));
#807=DIRECTION('',(1.,0.,0.));
#808=DIRECTION('',(0.,-1.,0.));
#809=DIRECTION('',(-1.,0.,0.));
#810=DIRECTION('center_axis',(0.,1.,0.));
#811=DIRECTION('ref_axis',(0.,0.,-1.));
#812=DIRECTION('',(0.,0.,-1.));
#813=DIRECTION('center_axis',(0.,-1.,0.));
#814=DIRECTION('ref_axis',(0.,0.,1.));
#815=DIRECTION('center_axis',(0.,0.,-1.));
#816=DIRECTION('ref_axis',(0.,-1.,0.));
#817=DIRECTION('',(0.,-1.,0.));
#818=DIRECTION('',(-1.,0.,0.));
#819=DIRECTION('center_axis',(0.,-1.,0.));
#820=DIRECTION('ref_axis',(0.,0.,1.));
#821=DIRECTION('',(0.,0.,1.));
#822=DIRECTION('center_axis',(0.,1.,0.));
#823=DIRECTION('ref_axis',(0.,0.,-1.));
#824=DIRECTION('',(-1.,0.,0.));
#825=DIRECTION('',(0.,0.,-1.));
#826=DIRECTION('center_axis',(0.,0.,-1.));
#827=DIRECTION('ref_axis',(0.,1.,0.));
#828=DIRECTION('',(1.,0.,0.));
#829=DIRECTION('center_axis',(0.,1.,0.));
#830=DIRECTION('ref_axis',(0.,0.,1.));
#831=DIRECTION('',(1.,0.,0.));
#832=DIRECTION('center_axis',(0.,0.,-1.));
#833=DIRECTION('ref_axis',(0.,1.,0.));
#834=DIRECTION('',(1.,0.,0.));
#835=DIRECTION('center_axis',(0.,0.,-1.));
#836=DIRECTION('ref_axis',(0.,-1.,0.));
#837=DIRECTION('',(1.,0.,0.));
#838=DIRECTION('',(0.,-1.,0.));
#839=DIRECTION('center_axis',(0.,1.,0.));
#840=DIRECTION('ref_axis',(0.,0.,-1.));
#841=DIRECTION('center_axis',(0.,0.,-1.));
#842=DIRECTION('ref_axis',(0.,-1.,0.));
#843=DIRECTION('',(0.,-1.,0.));
#844=DIRECTION('',(-1.,0.,0.));
#845=DIRECTION('center_axis',(0.,1.,0.));
#846=DIRECTION('ref_axis',(0.,0.,-1.));
#847=DIRECTION('',(0.,0.,-1.));
#848=DIRECTION('center_axis',(-1.,0.,0.));
#849=DIRECTION('ref_axis',(0.,0.,1.));
#850=CARTESIAN_POINT('',(0.,0.,0.));
#851=CARTESIAN_POINT('Origin',(-40.,18.75,-1.25));
#852=CARTESIAN_POINT('',(40.,18.75,-1.25));
#853=CARTESIAN_POINT('',(-40.,18.75,-1.25));
#854=CARTESIAN_POINT('',(-42.5000005587935,18.75,-1.25));
#855=CARTESIAN_POINT('',(40.,18.75,-8.75));
#856=CARTESIAN_POINT('',(40.,18.75,-1.25));
#857=CARTESIAN_POINT('',(-40.,18.75,-8.75));
#858=CARTESIAN_POINT('',(-40.,18.75,-8.75));
#859=CARTESIAN_POINT('',(-40.,18.75,-1.25));
#860=CARTESIAN_POINT('Origin',(-40.,-18.75,-1.25));
#861=CARTESIAN_POINT('',(-40.,-18.75,-1.25));
#862=CARTESIAN_POINT('',(-40.,1.8749997485429,-1.25));
#863=CARTESIAN_POINT('',(-40.,-18.75,-8.75));
#864=CARTESIAN_POINT('',(-40.,-18.75,-8.75));
#865=CARTESIAN_POINT('',(-40.,-18.75,-1.25));
#866=CARTESIAN_POINT('Origin',(40.,-18.75,-1.25));
#867=CARTESIAN_POINT('',(40.,-18.75,-1.25));
#868=CARTESIAN_POINT('',(-2.50000055879354,-18.75,-1.25));
#869=CARTESIAN_POINT('',(40.,-18.75,-8.75));
#870=CARTESIAN_POINT('',(40.,-18.75,-8.75));
#871=CARTESIAN_POINT('',(40.,-18.75,-1.25));
#872=CARTESIAN_POINT('Origin',(40.,18.75,-1.25));
#873=CARTESIAN_POINT('',(40.,20.6249997485429,-1.25));
#874=CARTESIAN_POINT('',(40.,18.75,-8.75));
#875=CARTESIAN_POINT('Origin',(0.,0.,-8.75));
#876=CARTESIAN_POINT('Origin',(-1.11758708953857E-6,23.9999994970858,-0.2));
#877=CARTESIAN_POINT('',(49.9999988824129,24.1999994970858,-0.2));
#878=CARTESIAN_POINT('',(-45.0000011175871,24.1999994970858,-0.2));
#879=CARTESIAN_POINT('',(-1.11758708953857E-6,24.1999994970858,-0.2));
#880=CARTESIAN_POINT('',(-44.8000011175871,23.9999994970858,0.));
#881=CARTESIAN_POINT('Origin',(-44.8000011175871,23.9999994970858,-0.2));
#882=CARTESIAN_POINT('',(49.7999988824129,23.9999994970858,-1.0824858959523E-30));
#883=CARTESIAN_POINT('',(-1.11758708953857E-6,23.9999994970858,0.));
#884=CARTESIAN_POINT('Origin',(49.7999988824129,23.9999994970858,-0.2));
#885=CARTESIAN_POINT('Origin',(-1.11758708953857E-6,-23.9999994970858,-0.2));
#886=CARTESIAN_POINT('',(49.7999988824129,-23.9999994970858,0.));
#887=CARTESIAN_POINT('',(-44.8000011175871,-23.9999994970858,5.09804985278984E-33));
#888=CARTESIAN_POINT('',(-1.11758708953857E-6,-23.9999994970858,0.));
#889=CARTESIAN_POINT('',(-45.0000011175871,-24.1999994970858,-0.2));
#890=CARTESIAN_POINT('Origin',(-44.8000011175871,-23.9999994970858,-0.2));
#891=CARTESIAN_POINT('',(49.9999988824129,-24.1999994970858,-0.2));
#892=CARTESIAN_POINT('',(-1.11758708953857E-6,-24.1999994970858,-0.2));
#893=CARTESIAN_POINT('Origin',(49.7999988824129,-23.9999994970858,-0.2));
#894=CARTESIAN_POINT('Origin',(-44.8000011175871,-23.7749994970858,-0.2));
#895=CARTESIAN_POINT('',(-45.0000011175871,-23.7749994970858,-0.2));
#896=CARTESIAN_POINT('',(-44.8000011175871,-23.7749994970858,0.));
#897=CARTESIAN_POINT('Origin',(49.7999988824129,-23.7749994970858,-0.2));
#898=CARTESIAN_POINT('',(49.9999988824129,-23.7749994970858,-0.2));
#899=CARTESIAN_POINT('',(49.7999988824129,-23.7749994970858,0.));
#900=CARTESIAN_POINT('Origin',(49.9999988824129,-23.3499994970858,-2.));
#901=CARTESIAN_POINT('',(49.9999988824129,-24.1999994970858,-4.));
#902=CARTESIAN_POINT('',(49.9999988824129,-24.1999994970858,3.85185988877447E-32));
#903=CARTESIAN_POINT('',(49.9999988824129,-22.9999994859099,-3.99999991059303));
#904=CARTESIAN_POINT('',(49.9999988824129,-24.1999994970858,-4.));
#905=CARTESIAN_POINT('',(49.9999988824129,-22.9999994859099,-2.49999991059303));
#906=CARTESIAN_POINT('',(49.9999988824129,-22.9999994859099,-3.99999991059303));
#907=CARTESIAN_POINT('',(49.9999988824129,-22.4999994970858,-2.49999991059303));
#908=CARTESIAN_POINT('',(49.9999988824129,-22.9999994859099,-2.49999991059303));
#909=CARTESIAN_POINT('',(49.9999988824129,-22.5000005029142,-1.25));
#910=CARTESIAN_POINT('',(49.9999988824129,-22.4999994970858,-4.));
#911=CARTESIAN_POINT('',(49.9999988824129,22.4999994970858,-1.25));
#912=CARTESIAN_POINT('',(49.9999988824129,22.4999994970858,-1.25));
#913=CARTESIAN_POINT('',(49.9999988824129,22.4999994970858,-2.49999991059303));
#914=CARTESIAN_POINT('',(49.9999988824129,22.4999994970858,-4.));
#915=CARTESIAN_POINT('',(49.9999988824129,22.9999994859099,-2.49999991059303));
#916=CARTESIAN_POINT('',(49.9999988824129,22.9999994859099,-2.49999991059303));
#917=CARTESIAN_POINT('',(49.9999988824129,22.9999994859099,-3.99999991059303));
#918=CARTESIAN_POINT('',(49.9999988824129,22.9999994859099,-3.99999991059303));
#919=CARTESIAN_POINT('',(49.9999988824129,24.1999994970858,-4.));
#920=CARTESIAN_POINT('',(49.9999988824129,24.1999994970858,-4.));
#921=CARTESIAN_POINT('',(49.9999988824129,24.1999994970858,3.85185988877447E-32));
#922=CARTESIAN_POINT('Origin',(-1.11758708953857E-6,-24.1999994970858,-4.));
#923=CARTESIAN_POINT('',(-45.0000011175871,-24.1999994970858,-4.));
#924=CARTESIAN_POINT('',(-45.0000011175871,-24.1999994970858,3.85185988877447E-32));
#925=CARTESIAN_POINT('',(43.153380351151,-24.1999994970858,-4.));
#926=CARTESIAN_POINT('',(-1.11758708953857E-6,-24.1999994970858,-4.));
#927=CARTESIAN_POINT('',(46.8466174136748,-24.1999994970858,-4.));
#928=CARTESIAN_POINT('Origin',(44.9999988824129,-24.1999994970858,-3.));
#929=CARTESIAN_POINT('',(-1.11758708953857E-6,-24.1999994970858,-4.));
#930=CARTESIAN_POINT('Origin',(-1.11758708953857E-6,-24.1999994970858,3.85185988877447E-32));
#931=CARTESIAN_POINT('Origin',(-45.0000011175871,22.4999994970858,-1.25));
#932=CARTESIAN_POINT('',(46.1608175590373,-22.5000005029142,-1.25));
#933=CARTESIAN_POINT('',(46.1608175590373,22.4999994970858,-1.25));
#934=CARTESIAN_POINT('',(46.1608175590373,-25.0000011175871,-1.25));
#935=CARTESIAN_POINT('',(-22.5000011175871,22.4999994970858,-1.25));
#936=CARTESIAN_POINT('',(-22.5000011175871,-22.4999994970858,-1.25));
#937=CARTESIAN_POINT('Origin',(-45.0000011175871,22.4999994970858,-1.25));
#938=CARTESIAN_POINT('',(43.8391802057885,22.4999994970858,-1.25));
#939=CARTESIAN_POINT('',(43.8391802057885,-22.5000005029142,-1.25));
#940=CARTESIAN_POINT('',(43.8391802057885,-25.0000011175871,-1.25));
#941=CARTESIAN_POINT('',(-45.0000011175871,-22.5000005029142,-1.25));
#942=CARTESIAN_POINT('',(-22.5000011175871,-22.4999994970858,-1.25));
#943=CARTESIAN_POINT('',(-45.0000011175871,22.4999994970858,-1.25));
#944=CARTESIAN_POINT('',(-45.0000011175871,22.4999994970858,-1.25));
#945=CARTESIAN_POINT('',(-22.5000011175871,22.4999994970858,-1.25));
#946=CARTESIAN_POINT('Origin',(-1.11758708953857E-6,22.4999994970858,-2.49999991059303));
#947=CARTESIAN_POINT('',(-45.0000011175871,22.4999994970858,-2.49999991059303));
#948=CARTESIAN_POINT('',(-45.0000011175871,22.4999994970858,-4.));
#949=CARTESIAN_POINT('',(42.9603910988935,22.4999994970858,-2.49999991059303));
#950=CARTESIAN_POINT('',(-1.11758708953857E-6,22.4999994970858,-2.49999991059303));
#951=CARTESIAN_POINT('Origin',(44.9999988824129,22.4999994970858,-3.));
#952=CARTESIAN_POINT('Origin',(44.9999988824129,-25.0000011175871,-3.));
#953=CARTESIAN_POINT('',(46.8466174136748,24.1999994970858,-4.));
#954=CARTESIAN_POINT('',(43.153380351151,24.1999994970858,-4.));
#955=CARTESIAN_POINT('Origin',(44.9999988824129,24.1999994970858,-3.));
#956=CARTESIAN_POINT('',(46.8466174620914,22.9999994859099,-3.99999991059303));
#957=CARTESIAN_POINT('',(46.8466174136748,-25.0000011175871,-4.));
#958=CARTESIAN_POINT('',(47.0396066659323,22.9999994859099,-2.49999991059303));
#959=CARTESIAN_POINT('Origin',(44.9999988824129,22.9999994859099,-3.));
#960=CARTESIAN_POINT('',(47.0396066659323,22.4999994970858,-2.49999991059303));
#961=CARTESIAN_POINT('',(47.0396066659323,-25.0000011175871,-2.49999991059303));
#962=CARTESIAN_POINT('Origin',(44.9999988824129,22.4999994970858,-3.));
#963=CARTESIAN_POINT('',(47.0396066659323,-22.4999994970858,-2.49999991059303));
#964=CARTESIAN_POINT('Origin',(44.9999988824129,-22.4999994970858,-3.));
#965=CARTESIAN_POINT('',(47.0396066659323,-22.9999994859099,-2.49999991059303));
#966=CARTESIAN_POINT('',(47.0396066659323,-25.0000011175871,-2.49999991059303));
#967=CARTESIAN_POINT('',(46.8466174620914,-22.9999994859099,-3.99999991059303));
#968=CARTESIAN_POINT('Origin',(44.9999988824129,-22.9999994859099,-3.));
#969=CARTESIAN_POINT('',(46.8466174136748,-25.0000011175871,-4.));
#970=CARTESIAN_POINT('',(43.1533803027344,-22.9999994859099,-3.99999991059303));
#971=CARTESIAN_POINT('',(43.153380351151,-25.0000011175871,-4.));
#972=CARTESIAN_POINT('',(42.9603910988935,-22.9999994859099,-2.49999991059303));
#973=CARTESIAN_POINT('Origin',(44.9999988824129,-22.9999994859099,-3.));
#974=CARTESIAN_POINT('',(42.9603910988935,-22.4999994970858,-2.49999991059303));
#975=CARTESIAN_POINT('',(42.9603910988935,-25.0000011175871,-2.49999991059303));
#976=CARTESIAN_POINT('Origin',(44.9999988824129,-22.4999994970858,-3.));
#977=CARTESIAN_POINT('',(42.9603910988935,22.9999994859099,-2.49999991059303));
#978=CARTESIAN_POINT('',(42.9603910988935,-25.0000011175871,-2.49999991059303));
#979=CARTESIAN_POINT('',(43.1533803027344,22.9999994859099,-3.99999991059303));
#980=CARTESIAN_POINT('Origin',(44.9999988824129,22.9999994859099,-3.));
#981=CARTESIAN_POINT('',(43.153380351151,-25.0000011175871,-4.));
#982=CARTESIAN_POINT('Origin',(-1.11758708953857E-6,22.4999994970858,-2.49999991059303));
#983=CARTESIAN_POINT('',(-1.11758708953857E-6,22.9999994859099,-2.49999991059303));
#984=CARTESIAN_POINT('',(-1.11758708953857E-6,22.4999994970858,-2.49999991059303));
#985=CARTESIAN_POINT('Origin',(-1.11758708953857E-6,22.9999994859099,-2.49999991059303));
#986=CARTESIAN_POINT('',(-1.11758708953857E-6,22.9999994859099,-3.99999991059303));
#987=CARTESIAN_POINT('Origin',(-1.11758708953857E-6,22.9999994859099,-4.));
#988=CARTESIAN_POINT('',(-1.11758708953857E-6,24.1999994970858,-4.));
#989=CARTESIAN_POINT('Origin',(-1.11758708953857E-6,24.1999994970858,-4.));
#990=CARTESIAN_POINT('',(-45.0000011175871,22.9999994859099,-3.99999991059303));
#991=CARTESIAN_POINT('',(-1.11758708953857E-6,22.9999994859099,-3.99999991059303));
#992=CARTESIAN_POINT('',(-45.0000011175871,24.1999994970858,-4.));
#993=CARTESIAN_POINT('',(-45.0000011175871,24.1999994970858,-4.));
#994=CARTESIAN_POINT('',(-1.11758708953857E-6,24.1999994970858,-4.));
#995=CARTESIAN_POINT('Origin',(-1.11758708953857E-6,24.1999994970858,3.85185988877447E-32));
#996=CARTESIAN_POINT('',(-45.0000011175871,24.1999994970858,3.85185988877447E-32));
#997=CARTESIAN_POINT('Origin',(-1.11758708953857E-6,22.4999994970858,-2.49999991059303));
#998=CARTESIAN_POINT('Origin',(-1.11758708953857E-6,22.9999994859099,-2.49999991059303));
#999=CARTESIAN_POINT('',(-45.0000011175871,22.9999994859099,-2.49999991059303));
#1000=CARTESIAN_POINT('',(-45.0000011175871,22.9999994859099,-2.49999991059303));
#1001=CARTESIAN_POINT('',(-1.11758708953857E-6,22.9999994859099,-2.49999991059303));
#1002=CARTESIAN_POINT('Origin',(-1.11758708953857E-6,22.9999994859099,-3.99999991059303));
#1003=CARTESIAN_POINT('',(-45.0000011175871,22.9999994859099,-3.99999991059303));
#1004=CARTESIAN_POINT('Origin',(-1.11758708953857E-6,-22.4999994970858,
0.));
#1005=CARTESIAN_POINT('',(-45.0000011175871,-22.4999994970858,-2.49999991059303));
#1006=CARTESIAN_POINT('',(-1.11758708953857E-6,-22.4999994970858,-2.49999991059303));
#1007=CARTESIAN_POINT('',(-45.0000011175871,-22.4999994970858,-4.));
#1008=CARTESIAN_POINT('Origin',(-1.11758708953857E-6,-24.1999994970858,
-4.));
#1009=CARTESIAN_POINT('',(-1.11758708953857E-6,-22.9999994859099,-3.99999991059303));
#1010=CARTESIAN_POINT('Origin',(-1.11758708953857E-6,-22.9999994859099,
-3.99999991059303));
#1011=CARTESIAN_POINT('',(-1.11758708953857E-6,-22.9999994859099,-2.49999991059303));
#1012=CARTESIAN_POINT('Origin',(-1.11758708953857E-6,-22.9999994859099,
-2.49999991059303));
#1013=CARTESIAN_POINT('',(-1.11758708953857E-6,-22.4999994970858,-2.49999991059303));
#1014=CARTESIAN_POINT('Origin',(-1.11758708953857E-6,-22.4999994970858,
-2.49999991059303));
#1015=CARTESIAN_POINT('',(-45.0000011175871,-22.9999994859099,-2.49999991059303));
#1016=CARTESIAN_POINT('',(-1.11758708953857E-6,-22.9999994859099,-2.49999991059303));
#1017=CARTESIAN_POINT('',(-45.0000011175871,-22.9999994859099,-2.49999991059303));
#1018=CARTESIAN_POINT('Origin',(-1.11758708953857E-6,-22.4999994970858,
0.));
#1019=CARTESIAN_POINT('Origin',(-1.11758708953857E-6,-22.9999994859099,
-4.));
#1020=CARTESIAN_POINT('',(-45.0000011175871,-22.9999994859099,-3.99999991059303));
#1021=CARTESIAN_POINT('',(-45.0000011175871,-24.1999994970858,-4.));
#1022=CARTESIAN_POINT('',(-1.11758708953857E-6,-22.9999994859099,-3.99999991059303));
#1023=CARTESIAN_POINT('Origin',(-1.11758708953857E-6,-22.9999994859099,
-2.49999991059303));
#1024=CARTESIAN_POINT('',(-45.0000011175871,-22.9999994859099,-3.99999991059303));
#1025=CARTESIAN_POINT('Origin',(-45.0000011175871,-23.3499994970858,-2.));
#1026=UNCERTAINTY_MEASURE_WITH_UNIT(LENGTH_MEASURE(0.01),#1030,
'DISTANCE_ACCURACY_VALUE',
'Maximum model space distance between geometric entities at asserted c
onnectivities');
#1027=UNCERTAINTY_MEASURE_WITH_UNIT(LENGTH_MEASURE(0.01),#1030,
'DISTANCE_ACCURACY_VALUE',
'Maximum model space distance between geometric entities at asserted c
onnectivities');
#1028=(
GEOMETRIC_REPRESENTATION_CONTEXT(3)
GLOBAL_UNCERTAINTY_ASSIGNED_CONTEXT((#1026))
GLOBAL_UNIT_ASSIGNED_CONTEXT((#1030,#1032,#1033))
REPRESENTATION_CONTEXT('','3D')
);
#1029=(
GEOMETRIC_REPRESENTATION_CONTEXT(3)
GLOBAL_UNCERTAINTY_ASSIGNED_CONTEXT((#1027))
GLOBAL_UNIT_ASSIGNED_CONTEXT((#1030,#1032,#1033))
REPRESENTATION_CONTEXT('','3D')
);
#1030=(
LENGTH_UNIT()
NAMED_UNIT(*)
SI_UNIT(.MILLI.,.METRE.)
);
#1031=(
LENGTH_UNIT()
NAMED_UNIT(*)
SI_UNIT($,.METRE.)
);
#1032=(
NAMED_UNIT(*)
PLANE_ANGLE_UNIT()
SI_UNIT($,.RADIAN.)
);
#1033=(
NAMED_UNIT(*)
SI_UNIT($,.STERADIAN.)
SOLID_ANGLE_UNIT()
);
#1034=SHAPE_DEFINITION_REPRESENTATION(#1035,#1036);
#1035=PRODUCT_DEFINITION_SHAPE('',$,#1038);
#1036=SHAPE_REPRESENTATION('',(#634),#1028);
#1037=PRODUCT_DEFINITION_CONTEXT('part definition',#1042,'design');
#1038=PRODUCT_DEFINITION('2026-05-01-18-39-50-689',
'payload rail system v5',#1039,#1037);
#1039=PRODUCT_DEFINITION_FORMATION('',$,#1044);
#1040=PRODUCT_RELATED_PRODUCT_CATEGORY('payload rail system v5',
'payload rail system v5',(#1044));
#1041=APPLICATION_PROTOCOL_DEFINITION('international standard',
'automotive_design',2009,#1042);
#1042=APPLICATION_CONTEXT(
'Core Data for Automotive Mechanical Design Process');
#1043=PRODUCT_CONTEXT('part definition',#1042,'mechanical');
#1044=PRODUCT('2026-05-01-18-39-50-689','payload rail system v5',$,(#1043));
#1045=PRESENTATION_STYLE_ASSIGNMENT((#1046));
#1046=SURFACE_STYLE_USAGE(.BOTH.,#1047);
#1047=SURFACE_SIDE_STYLE('',(#1048));
#1048=SURFACE_STYLE_FILL_AREA(#1049);
#1049=FILL_AREA_STYLE('Steel - Satin',(#1050));
#1050=FILL_AREA_STYLE_COLOUR('Steel - Satin',#1051);
#1051=COLOUR_RGB('Steel - Satin',0.627450980392157,0.627450980392157,0.627450980392157);
ENDSEC;
END-ISO-10303-21;
