ISO-10303-21;
HEADER;
/* Generated by software containing ST-Developer
 * from STEP Tools, Inc. (www.steptools.com) 
 */

FILE_DESCRIPTION(
/* description */ (''),
/* implementation_level */ '2;1');

FILE_NAME(
/* name */ 'fff620ab-e64f-4499-940d-6ea374b2e463.stp',
/* time_stamp */ '2026-06-11T14:03:25Z',
/* author */ (''),
/* organization */ (''),
/* preprocessor_version */ 'ST-DEVELOPER v20.1',
/* originating_system */ 'Autodesk Translation Framework v15.8.0.0',
/* authorisation */ '');

FILE_SCHEMA (('AUTOMOTIVE_DESIGN { 1 0 10303 214 3 1 1 }'));
ENDSEC;

DATA;
#10=MECHANICAL_DESIGN_GEOMETRIC_PRESENTATION_REPRESENTATION('',(#13),#972);
#11=SHAPE_REPRESENTATION_RELATIONSHIP('SRR','None',#979,#12);
#12=ADVANCED_BREP_SHAPE_REPRESENTATION('',(#14),#971);
#13=STYLED_ITEM('',(#988),#14);
#14=MANIFOLD_SOLID_BREP('Body62',#548);
#15=SPHERICAL_SURFACE('',#592,1.5);
#16=SPHERICAL_SURFACE('',#597,1.5);
#17=SPHERICAL_SURFACE('',#602,1.5);
#18=SPHERICAL_SURFACE('',#603,1.5);
#19=SPHERICAL_SURFACE('',#615,4.);
#20=SPHERICAL_SURFACE('',#620,4.);
#21=SPHERICAL_SURFACE('',#624,4.);
#22=SPHERICAL_SURFACE('',#625,4.);
#23=CYLINDRICAL_SURFACE('',#571,1.5);
#24=CYLINDRICAL_SURFACE('',#574,1.5);
#25=CYLINDRICAL_SURFACE('',#577,4.);
#26=CYLINDRICAL_SURFACE('',#580,4.);
#27=CYLINDRICAL_SURFACE('',#583,4.);
#28=CYLINDRICAL_SURFACE('',#586,1.5);
#29=CYLINDRICAL_SURFACE('',#589,1.5);
#30=CYLINDRICAL_SURFACE('',#594,1.5);
#31=CYLINDRICAL_SURFACE('',#599,1.5);
#32=CYLINDRICAL_SURFACE('',#604,1.5);
#33=CYLINDRICAL_SURFACE('',#607,1.5);
#34=CYLINDRICAL_SURFACE('',#609,4.);
#35=CYLINDRICAL_SURFACE('',#612,4.);
#36=CYLINDRICAL_SURFACE('',#617,4.);
#37=CYLINDRICAL_SURFACE('',#621,4.);
#38=CYLINDRICAL_SURFACE('',#629,4.);
#39=CYLINDRICAL_SURFACE('',#630,4.);
#40=FACE_BOUND('',#80,.T.);
#41=FACE_BOUND('',#101,.T.);
#42=FACE_BOUND('',#114,.T.);
#43=FACE_OUTER_BOUND('',#79,.T.);
#44=FACE_OUTER_BOUND('',#81,.T.);
#45=FACE_OUTER_BOUND('',#82,.T.);
#46=FACE_OUTER_BOUND('',#83,.T.);
#47=FACE_OUTER_BOUND('',#84,.T.);
#48=FACE_OUTER_BOUND('',#85,.T.);
#49=FACE_OUTER_BOUND('',#86,.T.);
#50=FACE_OUTER_BOUND('',#87,.T.);
#51=FACE_OUTER_BOUND('',#88,.T.);
#52=FACE_OUTER_BOUND('',#89,.T.);
#53=FACE_OUTER_BOUND('',#90,.T.);
#54=FACE_OUTER_BOUND('',#91,.T.);
#55=FACE_OUTER_BOUND('',#92,.T.);
#56=FACE_OUTER_BOUND('',#93,.T.);
#57=FACE_OUTER_BOUND('',#94,.T.);
#58=FACE_OUTER_BOUND('',#95,.T.);
#59=FACE_OUTER_BOUND('',#96,.T.);
#60=FACE_OUTER_BOUND('',#97,.T.);
#61=FACE_OUTER_BOUND('',#98,.T.);
#62=FACE_OUTER_BOUND('',#99,.T.);
#63=FACE_OUTER_BOUND('',#100,.T.);
#64=FACE_OUTER_BOUND('',#102,.T.);
#65=FACE_OUTER_BOUND('',#103,.T.);
#66=FACE_OUTER_BOUND('',#104,.T.);
#67=FACE_OUTER_BOUND('',#105,.T.);
#68=FACE_OUTER_BOUND('',#106,.T.);
#69=FACE_OUTER_BOUND('',#107,.T.);
#70=FACE_OUTER_BOUND('',#108,.T.);
#71=FACE_OUTER_BOUND('',#109,.T.);
#72=FACE_OUTER_BOUND('',#110,.T.);
#73=FACE_OUTER_BOUND('',#111,.T.);
#74=FACE_OUTER_BOUND('',#112,.T.);
#75=FACE_OUTER_BOUND('',#113,.T.);
#76=FACE_OUTER_BOUND('',#115,.T.);
#77=FACE_OUTER_BOUND('',#116,.T.);
#78=FACE_OUTER_BOUND('',#117,.T.);
#79=EDGE_LOOP('',(#351,#352,#353,#354,#355,#356,#357,#358));
#80=EDGE_LOOP('',(#359,#360,#361,#362,#363,#364,#365,#366));
#81=EDGE_LOOP('',(#367,#368,#369,#370));
#82=EDGE_LOOP('',(#371,#372,#373,#374));
#83=EDGE_LOOP('',(#375,#376,#377,#378));
#84=EDGE_LOOP('',(#379,#380,#381,#382));
#85=EDGE_LOOP('',(#383,#384,#385,#386));
#86=EDGE_LOOP('',(#387,#388,#389,#390));
#87=EDGE_LOOP('',(#391,#392,#393,#394));
#88=EDGE_LOOP('',(#395,#396,#397,#398));
#89=EDGE_LOOP('',(#399,#400,#401,#402));
#90=EDGE_LOOP('',(#403,#404,#405,#406));
#91=EDGE_LOOP('',(#407,#408,#409,#410));
#92=EDGE_LOOP('',(#411,#412,#413));
#93=EDGE_LOOP('',(#414,#415,#416,#417));
#94=EDGE_LOOP('',(#418,#419,#420));
#95=EDGE_LOOP('',(#421,#422,#423,#424));
#96=EDGE_LOOP('',(#425,#426,#427));
#97=EDGE_LOOP('',(#428,#429,#430));
#98=EDGE_LOOP('',(#431,#432,#433,#434));
#99=EDGE_LOOP('',(#435,#436,#437,#438));
#100=EDGE_LOOP('',(#439,#440,#441,#442));
#101=EDGE_LOOP('',(#443));
#102=EDGE_LOOP('',(#444,#445,#446,#447));
#103=EDGE_LOOP('',(#448,#449,#450,#451));
#104=EDGE_LOOP('',(#452,#453,#454,#455));
#105=EDGE_LOOP('',(#456,#457,#458,#459));
#106=EDGE_LOOP('',(#460,#461,#462));
#107=EDGE_LOOP('',(#463,#464,#465,#466));
#108=EDGE_LOOP('',(#467,#468,#469));
#109=EDGE_LOOP('',(#470,#471,#472,#473));
#110=EDGE_LOOP('',(#474,#475,#476));
#111=EDGE_LOOP('',(#477,#478,#479));
#112=EDGE_LOOP('',(#480,#481,#482,#483));
#113=EDGE_LOOP('',(#484,#485,#486,#487));
#114=EDGE_LOOP('',(#488));
#115=EDGE_LOOP('',(#489,#490,#491,#492));
#116=EDGE_LOOP('',(#493,#494,#495,#496));
#117=EDGE_LOOP('',(#497,#498,#499,#500));
#118=LINE('',#821,#159);
#119=LINE('',#825,#160);
#120=LINE('',#829,#161);
#121=LINE('',#832,#162);
#122=LINE('',#837,#163);
#123=LINE('',#841,#164);
#124=LINE('',#845,#165);
#125=LINE('',#848,#166);
#126=LINE('',#851,#167);
#127=LINE('',#854,#168);
#128=LINE('',#857,#169);
#129=LINE('',#858,#170);
#130=LINE('',#861,#171);
#131=LINE('',#865,#172);
#132=LINE('',#866,#173);
#133=LINE('',#869,#174);
#134=LINE('',#872,#175);
#135=LINE('',#875,#176);
#136=LINE('',#876,#177);
#137=LINE('',#879,#178);
#138=LINE('',#883,#179);
#139=LINE('',#884,#180);
#140=LINE('',#889,#181);
#141=LINE('',#896,#182);
#142=LINE('',#901,#183);
#143=LINE('',#904,#184);
#144=LINE('',#910,#185);
#145=LINE('',#913,#186);
#146=LINE('',#919,#187);
#147=LINE('',#923,#188);
#148=LINE('',#924,#189);
#149=LINE('',#928,#190);
#150=LINE('',#935,#191);
#151=LINE('',#938,#192);
#152=LINE('',#942,#193);
#153=LINE('',#949,#194);
#154=LINE('',#954,#195);
#155=LINE('',#957,#196);
#156=LINE('',#962,#197);
#157=LINE('',#965,#198);
#158=LINE('',#967,#199);
#159=VECTOR('',#638,10.);
#160=VECTOR('',#641,10.);
#161=VECTOR('',#644,10.);
#162=VECTOR('',#647,10.);
#163=VECTOR('',#650,10.);
#164=VECTOR('',#653,10.);
#165=VECTOR('',#656,10.);
#166=VECTOR('',#659,10.);
#167=VECTOR('',#662,10.);
#168=VECTOR('',#665,10.);
#169=VECTOR('',#668,10.);
#170=VECTOR('',#669,10.);
#171=VECTOR('',#672,10.);
#172=VECTOR('',#677,10.);
#173=VECTOR('',#678,10.);
#174=VECTOR('',#681,10.);
#175=VECTOR('',#684,10.);
#176=VECTOR('',#687,10.);
#177=VECTOR('',#688,10.);
#178=VECTOR('',#691,10.);
#179=VECTOR('',#696,10.);
#180=VECTOR('',#697,10.);
#181=VECTOR('',#702,4.);
#182=VECTOR('',#711,10.);
#183=VECTOR('',#716,10.);
#184=VECTOR('',#719,10.);
#185=VECTOR('',#728,10.);
#186=VECTOR('',#731,10.);
#187=VECTOR('',#742,10.);
#188=VECTOR('',#749,10.);
#189=VECTOR('',#750,10.);
#190=VECTOR('',#757,10.);
#191=VECTOR('',#764,10.);
#192=VECTOR('',#767,10.);
#193=VECTOR('',#772,10.);
#194=VECTOR('',#783,10.);
#195=VECTOR('',#792,10.);
#196=VECTOR('',#795,10.);
#197=VECTOR('',#804,10.);
#198=VECTOR('',#809,10.);
#199=VECTOR('',#812,10.);
#200=CIRCLE('',#563,4.);
#201=CIRCLE('',#564,4.);
#202=CIRCLE('',#565,4.);
#203=CIRCLE('',#566,4.);
#204=CIRCLE('',#567,1.5);
#205=CIRCLE('',#568,1.5);
#206=CIRCLE('',#569,1.5);
#207=CIRCLE('',#570,1.5);
#208=CIRCLE('',#572,1.5);
#209=CIRCLE('',#575,1.5);
#210=CIRCLE('',#578,4.);
#211=CIRCLE('',#581,4.);
#212=CIRCLE('',#584,4.);
#213=CIRCLE('',#585,4.);
#214=CIRCLE('',#587,1.5);
#215=CIRCLE('',#588,1.5);
#216=CIRCLE('',#590,1.5);
#217=CIRCLE('',#591,1.5);
#218=CIRCLE('',#593,1.5);
#219=CIRCLE('',#595,1.5);
#220=CIRCLE('',#596,1.5);
#221=CIRCLE('',#598,1.5);
#222=CIRCLE('',#600,1.5);
#223=CIRCLE('',#601,1.5);
#224=CIRCLE('',#610,4.);
#225=CIRCLE('',#611,4.);
#226=CIRCLE('',#613,4.);
#227=CIRCLE('',#614,4.);
#228=CIRCLE('',#616,4.);
#229=CIRCLE('',#618,4.);
#230=CIRCLE('',#619,4.);
#231=CIRCLE('',#622,4.);
#232=CIRCLE('',#623,4.);
#233=CIRCLE('',#626,4.);
#234=VERTEX_POINT('',#817);
#235=VERTEX_POINT('',#818);
#236=VERTEX_POINT('',#820);
#237=VERTEX_POINT('',#822);
#238=VERTEX_POINT('',#824);
#239=VERTEX_POINT('',#826);
#240=VERTEX_POINT('',#828);
#241=VERTEX_POINT('',#830);
#242=VERTEX_POINT('',#833);
#243=VERTEX_POINT('',#834);
#244=VERTEX_POINT('',#836);
#245=VERTEX_POINT('',#838);
#246=VERTEX_POINT('',#840);
#247=VERTEX_POINT('',#842);
#248=VERTEX_POINT('',#844);
#249=VERTEX_POINT('',#846);
#250=VERTEX_POINT('',#850);
#251=VERTEX_POINT('',#852);
#252=VERTEX_POINT('',#856);
#253=VERTEX_POINT('',#860);
#254=VERTEX_POINT('',#864);
#255=VERTEX_POINT('',#868);
#256=VERTEX_POINT('',#870);
#257=VERTEX_POINT('',#874);
#258=VERTEX_POINT('',#878);
#259=VERTEX_POINT('',#882);
#260=VERTEX_POINT('',#886);
#261=VERTEX_POINT('',#888);
#262=VERTEX_POINT('',#892);
#263=VERTEX_POINT('',#894);
#264=VERTEX_POINT('',#898);
#265=VERTEX_POINT('',#900);
#266=VERTEX_POINT('',#902);
#267=VERTEX_POINT('',#908);
#268=VERTEX_POINT('',#911);
#269=VERTEX_POINT('',#931);
#270=VERTEX_POINT('',#932);
#271=VERTEX_POINT('',#934);
#272=VERTEX_POINT('',#936);
#273=VERTEX_POINT('',#941);
#274=VERTEX_POINT('',#948);
#275=VERTEX_POINT('',#955);
#276=EDGE_CURVE('',#234,#235,#200,.T.);
#277=EDGE_CURVE('',#236,#234,#118,.T.);
#278=EDGE_CURVE('',#237,#236,#201,.T.);
#279=EDGE_CURVE('',#238,#237,#119,.T.);
#280=EDGE_CURVE('',#239,#238,#202,.T.);
#281=EDGE_CURVE('',#240,#239,#120,.T.);
#282=EDGE_CURVE('',#241,#240,#203,.T.);
#283=EDGE_CURVE('',#235,#241,#121,.T.);
#284=EDGE_CURVE('',#242,#243,#204,.T.);
#285=EDGE_CURVE('',#244,#242,#122,.T.);
#286=EDGE_CURVE('',#245,#244,#205,.T.);
#287=EDGE_CURVE('',#246,#245,#123,.T.);
#288=EDGE_CURVE('',#247,#246,#206,.T.);
#289=EDGE_CURVE('',#248,#247,#124,.T.);
#290=EDGE_CURVE('',#249,#248,#207,.T.);
#291=EDGE_CURVE('',#243,#249,#125,.T.);
#292=EDGE_CURVE('',#250,#246,#126,.T.);
#293=EDGE_CURVE('',#250,#251,#208,.T.);
#294=EDGE_CURVE('',#247,#251,#127,.T.);
#295=EDGE_CURVE('',#245,#252,#128,.T.);
#296=EDGE_CURVE('',#252,#250,#129,.T.);
#297=EDGE_CURVE('',#253,#244,#130,.T.);
#298=EDGE_CURVE('',#253,#252,#209,.T.);
#299=EDGE_CURVE('',#242,#254,#131,.T.);
#300=EDGE_CURVE('',#254,#253,#132,.T.);
#301=EDGE_CURVE('',#238,#255,#133,.T.);
#302=EDGE_CURVE('',#256,#255,#210,.T.);
#303=EDGE_CURVE('',#256,#239,#134,.T.);
#304=EDGE_CURVE('',#257,#237,#135,.T.);
#305=EDGE_CURVE('',#255,#257,#136,.T.);
#306=EDGE_CURVE('',#236,#258,#137,.T.);
#307=EDGE_CURVE('',#257,#258,#211,.T.);
#308=EDGE_CURVE('',#259,#234,#138,.T.);
#309=EDGE_CURVE('',#258,#259,#139,.T.);
#310=EDGE_CURVE('',#260,#260,#212,.T.);
#311=EDGE_CURVE('',#260,#261,#140,.T.);
#312=EDGE_CURVE('',#261,#261,#213,.T.);
#313=EDGE_CURVE('',#253,#262,#214,.T.);
#314=EDGE_CURVE('',#263,#254,#215,.T.);
#315=EDGE_CURVE('',#262,#263,#141,.T.);
#316=EDGE_CURVE('',#264,#263,#216,.T.);
#317=EDGE_CURVE('',#265,#264,#142,.T.);
#318=EDGE_CURVE('',#266,#265,#217,.T.);
#319=EDGE_CURVE('',#263,#266,#143,.T.);
#320=EDGE_CURVE('',#264,#254,#218,.T.);
#321=EDGE_CURVE('',#267,#266,#219,.T.);
#322=EDGE_CURVE('',#251,#267,#144,.T.);
#323=EDGE_CURVE('',#268,#251,#220,.T.);
#324=EDGE_CURVE('',#266,#268,#145,.T.);
#325=EDGE_CURVE('',#267,#265,#221,.T.);
#326=EDGE_CURVE('',#250,#268,#222,.T.);
#327=EDGE_CURVE('',#262,#252,#223,.T.);
#328=EDGE_CURVE('',#268,#262,#146,.T.);
#329=EDGE_CURVE('',#267,#248,#147,.T.);
#330=EDGE_CURVE('',#249,#265,#148,.T.);
#331=EDGE_CURVE('',#264,#243,#149,.T.);
#332=EDGE_CURVE('',#269,#270,#224,.T.);
#333=EDGE_CURVE('',#270,#271,#150,.T.);
#334=EDGE_CURVE('',#271,#272,#225,.T.);
#335=EDGE_CURVE('',#272,#269,#151,.T.);
#336=EDGE_CURVE('',#259,#271,#226,.T.);
#337=EDGE_CURVE('',#271,#273,#152,.T.);
#338=EDGE_CURVE('',#273,#258,#227,.T.);
#339=EDGE_CURVE('',#259,#272,#228,.T.);
#340=EDGE_CURVE('',#257,#273,#229,.T.);
#341=EDGE_CURVE('',#273,#274,#153,.T.);
#342=EDGE_CURVE('',#274,#255,#230,.T.);
#343=EDGE_CURVE('',#256,#274,#231,.T.);
#344=EDGE_CURVE('',#274,#270,#154,.T.);
#345=EDGE_CURVE('',#270,#275,#232,.T.);
#346=EDGE_CURVE('',#275,#256,#155,.T.);
#347=EDGE_CURVE('',#269,#275,#233,.T.);
#348=EDGE_CURVE('',#240,#275,#156,.T.);
#349=EDGE_CURVE('',#235,#272,#157,.T.);
#350=EDGE_CURVE('',#269,#241,#158,.T.);
#351=ORIENTED_EDGE('',*,*,#276,.F.);
#352=ORIENTED_EDGE('',*,*,#277,.F.);
#353=ORIENTED_EDGE('',*,*,#278,.F.);
#354=ORIENTED_EDGE('',*,*,#279,.F.);
#355=ORIENTED_EDGE('',*,*,#280,.F.);
#356=ORIENTED_EDGE('',*,*,#281,.F.);
#357=ORIENTED_EDGE('',*,*,#282,.F.);
#358=ORIENTED_EDGE('',*,*,#283,.F.);
#359=ORIENTED_EDGE('',*,*,#284,.F.);
#360=ORIENTED_EDGE('',*,*,#285,.F.);
#361=ORIENTED_EDGE('',*,*,#286,.F.);
#362=ORIENTED_EDGE('',*,*,#287,.F.);
#363=ORIENTED_EDGE('',*,*,#288,.F.);
#364=ORIENTED_EDGE('',*,*,#289,.F.);
#365=ORIENTED_EDGE('',*,*,#290,.F.);
#366=ORIENTED_EDGE('',*,*,#291,.F.);
#367=ORIENTED_EDGE('',*,*,#288,.T.);
#368=ORIENTED_EDGE('',*,*,#292,.F.);
#369=ORIENTED_EDGE('',*,*,#293,.T.);
#370=ORIENTED_EDGE('',*,*,#294,.F.);
#371=ORIENTED_EDGE('',*,*,#287,.T.);
#372=ORIENTED_EDGE('',*,*,#295,.T.);
#373=ORIENTED_EDGE('',*,*,#296,.T.);
#374=ORIENTED_EDGE('',*,*,#292,.T.);
#375=ORIENTED_EDGE('',*,*,#286,.T.);
#376=ORIENTED_EDGE('',*,*,#297,.F.);
#377=ORIENTED_EDGE('',*,*,#298,.T.);
#378=ORIENTED_EDGE('',*,*,#295,.F.);
#379=ORIENTED_EDGE('',*,*,#285,.T.);
#380=ORIENTED_EDGE('',*,*,#299,.T.);
#381=ORIENTED_EDGE('',*,*,#300,.T.);
#382=ORIENTED_EDGE('',*,*,#297,.T.);
#383=ORIENTED_EDGE('',*,*,#280,.T.);
#384=ORIENTED_EDGE('',*,*,#301,.T.);
#385=ORIENTED_EDGE('',*,*,#302,.F.);
#386=ORIENTED_EDGE('',*,*,#303,.T.);
#387=ORIENTED_EDGE('',*,*,#279,.T.);
#388=ORIENTED_EDGE('',*,*,#304,.F.);
#389=ORIENTED_EDGE('',*,*,#305,.F.);
#390=ORIENTED_EDGE('',*,*,#301,.F.);
#391=ORIENTED_EDGE('',*,*,#278,.T.);
#392=ORIENTED_EDGE('',*,*,#306,.T.);
#393=ORIENTED_EDGE('',*,*,#307,.F.);
#394=ORIENTED_EDGE('',*,*,#304,.T.);
#395=ORIENTED_EDGE('',*,*,#277,.T.);
#396=ORIENTED_EDGE('',*,*,#308,.F.);
#397=ORIENTED_EDGE('',*,*,#309,.F.);
#398=ORIENTED_EDGE('',*,*,#306,.F.);
#399=ORIENTED_EDGE('',*,*,#310,.F.);
#400=ORIENTED_EDGE('',*,*,#311,.T.);
#401=ORIENTED_EDGE('',*,*,#312,.F.);
#402=ORIENTED_EDGE('',*,*,#311,.F.);
#403=ORIENTED_EDGE('',*,*,#313,.F.);
#404=ORIENTED_EDGE('',*,*,#300,.F.);
#405=ORIENTED_EDGE('',*,*,#314,.F.);
#406=ORIENTED_EDGE('',*,*,#315,.F.);
#407=ORIENTED_EDGE('',*,*,#316,.F.);
#408=ORIENTED_EDGE('',*,*,#317,.F.);
#409=ORIENTED_EDGE('',*,*,#318,.F.);
#410=ORIENTED_EDGE('',*,*,#319,.F.);
#411=ORIENTED_EDGE('',*,*,#316,.T.);
#412=ORIENTED_EDGE('',*,*,#314,.T.);
#413=ORIENTED_EDGE('',*,*,#320,.F.);
#414=ORIENTED_EDGE('',*,*,#321,.F.);
#415=ORIENTED_EDGE('',*,*,#322,.F.);
#416=ORIENTED_EDGE('',*,*,#323,.F.);
#417=ORIENTED_EDGE('',*,*,#324,.F.);
#418=ORIENTED_EDGE('',*,*,#321,.T.);
#419=ORIENTED_EDGE('',*,*,#318,.T.);
#420=ORIENTED_EDGE('',*,*,#325,.F.);
#421=ORIENTED_EDGE('',*,*,#326,.F.);
#422=ORIENTED_EDGE('',*,*,#296,.F.);
#423=ORIENTED_EDGE('',*,*,#327,.F.);
#424=ORIENTED_EDGE('',*,*,#328,.F.);
#425=ORIENTED_EDGE('',*,*,#326,.T.);
#426=ORIENTED_EDGE('',*,*,#323,.T.);
#427=ORIENTED_EDGE('',*,*,#293,.F.);
#428=ORIENTED_EDGE('',*,*,#313,.T.);
#429=ORIENTED_EDGE('',*,*,#327,.T.);
#430=ORIENTED_EDGE('',*,*,#298,.F.);
#431=ORIENTED_EDGE('',*,*,#290,.T.);
#432=ORIENTED_EDGE('',*,*,#329,.F.);
#433=ORIENTED_EDGE('',*,*,#325,.T.);
#434=ORIENTED_EDGE('',*,*,#330,.F.);
#435=ORIENTED_EDGE('',*,*,#289,.T.);
#436=ORIENTED_EDGE('',*,*,#294,.T.);
#437=ORIENTED_EDGE('',*,*,#322,.T.);
#438=ORIENTED_EDGE('',*,*,#329,.T.);
#439=ORIENTED_EDGE('',*,*,#315,.T.);
#440=ORIENTED_EDGE('',*,*,#319,.T.);
#441=ORIENTED_EDGE('',*,*,#324,.T.);
#442=ORIENTED_EDGE('',*,*,#328,.T.);
#443=ORIENTED_EDGE('',*,*,#312,.T.);
#444=ORIENTED_EDGE('',*,*,#284,.T.);
#445=ORIENTED_EDGE('',*,*,#331,.F.);
#446=ORIENTED_EDGE('',*,*,#320,.T.);
#447=ORIENTED_EDGE('',*,*,#299,.F.);
#448=ORIENTED_EDGE('',*,*,#291,.T.);
#449=ORIENTED_EDGE('',*,*,#330,.T.);
#450=ORIENTED_EDGE('',*,*,#317,.T.);
#451=ORIENTED_EDGE('',*,*,#331,.T.);
#452=ORIENTED_EDGE('',*,*,#332,.T.);
#453=ORIENTED_EDGE('',*,*,#333,.T.);
#454=ORIENTED_EDGE('',*,*,#334,.T.);
#455=ORIENTED_EDGE('',*,*,#335,.T.);
#456=ORIENTED_EDGE('',*,*,#336,.T.);
#457=ORIENTED_EDGE('',*,*,#337,.T.);
#458=ORIENTED_EDGE('',*,*,#338,.T.);
#459=ORIENTED_EDGE('',*,*,#309,.T.);
#460=ORIENTED_EDGE('',*,*,#336,.F.);
#461=ORIENTED_EDGE('',*,*,#339,.T.);
#462=ORIENTED_EDGE('',*,*,#334,.F.);
#463=ORIENTED_EDGE('',*,*,#340,.T.);
#464=ORIENTED_EDGE('',*,*,#341,.T.);
#465=ORIENTED_EDGE('',*,*,#342,.T.);
#466=ORIENTED_EDGE('',*,*,#305,.T.);
#467=ORIENTED_EDGE('',*,*,#340,.F.);
#468=ORIENTED_EDGE('',*,*,#307,.T.);
#469=ORIENTED_EDGE('',*,*,#338,.F.);
#470=ORIENTED_EDGE('',*,*,#343,.T.);
#471=ORIENTED_EDGE('',*,*,#344,.T.);
#472=ORIENTED_EDGE('',*,*,#345,.T.);
#473=ORIENTED_EDGE('',*,*,#346,.T.);
#474=ORIENTED_EDGE('',*,*,#343,.F.);
#475=ORIENTED_EDGE('',*,*,#302,.T.);
#476=ORIENTED_EDGE('',*,*,#342,.F.);
#477=ORIENTED_EDGE('',*,*,#332,.F.);
#478=ORIENTED_EDGE('',*,*,#347,.T.);
#479=ORIENTED_EDGE('',*,*,#345,.F.);
#480=ORIENTED_EDGE('',*,*,#281,.T.);
#481=ORIENTED_EDGE('',*,*,#303,.F.);
#482=ORIENTED_EDGE('',*,*,#346,.F.);
#483=ORIENTED_EDGE('',*,*,#348,.F.);
#484=ORIENTED_EDGE('',*,*,#333,.F.);
#485=ORIENTED_EDGE('',*,*,#344,.F.);
#486=ORIENTED_EDGE('',*,*,#341,.F.);
#487=ORIENTED_EDGE('',*,*,#337,.F.);
#488=ORIENTED_EDGE('',*,*,#310,.T.);
#489=ORIENTED_EDGE('',*,*,#276,.T.);
#490=ORIENTED_EDGE('',*,*,#349,.T.);
#491=ORIENTED_EDGE('',*,*,#339,.F.);
#492=ORIENTED_EDGE('',*,*,#308,.T.);
#493=ORIENTED_EDGE('',*,*,#282,.T.);
#494=ORIENTED_EDGE('',*,*,#348,.T.);
#495=ORIENTED_EDGE('',*,*,#347,.F.);
#496=ORIENTED_EDGE('',*,*,#350,.T.);
#497=ORIENTED_EDGE('',*,*,#283,.T.);
#498=ORIENTED_EDGE('',*,*,#350,.F.);
#499=ORIENTED_EDGE('',*,*,#335,.F.);
#500=ORIENTED_EDGE('',*,*,#349,.F.);
#501=PLANE('',#562);
#502=PLANE('',#573);
#503=PLANE('',#576);
#504=PLANE('',#579);
#505=PLANE('',#582);
#506=PLANE('',#605);
#507=PLANE('',#606);
#508=PLANE('',#608);
#509=PLANE('',#627);
#510=PLANE('',#628);
#511=PLANE('',#631);
#512=ADVANCED_FACE('',(#43,#40),#501,.F.);
#513=ADVANCED_FACE('',(#44),#23,.F.);
#514=ADVANCED_FACE('',(#45),#502,.F.);
#515=ADVANCED_FACE('',(#46),#24,.F.);
#516=ADVANCED_FACE('',(#47),#503,.F.);
#517=ADVANCED_FACE('',(#48),#25,.T.);
#518=ADVANCED_FACE('',(#49),#504,.T.);
#519=ADVANCED_FACE('',(#50),#26,.T.);
#520=ADVANCED_FACE('',(#51),#505,.T.);
#521=ADVANCED_FACE('',(#52),#27,.F.);
#522=ADVANCED_FACE('',(#53),#28,.F.);
#523=ADVANCED_FACE('',(#54),#29,.F.);
#524=ADVANCED_FACE('',(#55),#15,.F.);
#525=ADVANCED_FACE('',(#56),#30,.F.);
#526=ADVANCED_FACE('',(#57),#16,.F.);
#527=ADVANCED_FACE('',(#58),#31,.F.);
#528=ADVANCED_FACE('',(#59),#17,.F.);
#529=ADVANCED_FACE('',(#60),#18,.F.);
#530=ADVANCED_FACE('',(#61),#32,.F.);
#531=ADVANCED_FACE('',(#62),#506,.F.);
#532=ADVANCED_FACE('',(#63,#41),#507,.T.);
#533=ADVANCED_FACE('',(#64),#33,.F.);
#534=ADVANCED_FACE('',(#65),#508,.F.);
#535=ADVANCED_FACE('',(#66),#34,.T.);
#536=ADVANCED_FACE('',(#67),#35,.T.);
#537=ADVANCED_FACE('',(#68),#19,.T.);
#538=ADVANCED_FACE('',(#69),#36,.T.);
#539=ADVANCED_FACE('',(#70),#20,.T.);
#540=ADVANCED_FACE('',(#71),#37,.T.);
#541=ADVANCED_FACE('',(#72),#21,.T.);
#542=ADVANCED_FACE('',(#73),#22,.T.);
#543=ADVANCED_FACE('',(#74),#509,.T.);
#544=ADVANCED_FACE('',(#75,#42),#510,.F.);
#545=ADVANCED_FACE('',(#76),#38,.T.);
#546=ADVANCED_FACE('',(#77),#39,.T.);
#547=ADVANCED_FACE('',(#78),#511,.T.);
#548=CLOSED_SHELL('',(#512,#513,#514,#515,#516,#517,#518,#519,#520,#521,
#522,#523,#524,#525,#526,#527,#528,#529,#530,#531,#532,#533,#534,#535,#536,
#537,#538,#539,#540,#541,#542,#543,#544,#545,#546,#547));
#549=DERIVED_UNIT_ELEMENT(#551,1.);
#550=DERIVED_UNIT_ELEMENT(#974,-3.);
#551=(
MASS_UNIT()
NAMED_UNIT(*)
SI_UNIT(.KILO.,.GRAM.)
);
#552=DERIVED_UNIT((#549,#550));
#553=MEASURE_REPRESENTATION_ITEM('density measure',
POSITIVE_RATIO_MEASURE(7850.),#552);
#554=PROPERTY_DEFINITION_REPRESENTATION(#559,#556);
#555=PROPERTY_DEFINITION_REPRESENTATION(#560,#557);
#556=REPRESENTATION('material name',(#558),#971);
#557=REPRESENTATION('density',(#553),#971);
#558=DESCRIPTIVE_REPRESENTATION_ITEM('Steel','Steel');
#559=PROPERTY_DEFINITION('material property','material name',#981);
#560=PROPERTY_DEFINITION('material property','density of part',#981);
#561=AXIS2_PLACEMENT_3D('',#815,#632,#633);
#562=AXIS2_PLACEMENT_3D('',#816,#634,#635);
#563=AXIS2_PLACEMENT_3D('',#819,#636,#637);
#564=AXIS2_PLACEMENT_3D('',#823,#639,#640);
#565=AXIS2_PLACEMENT_3D('',#827,#642,#643);
#566=AXIS2_PLACEMENT_3D('',#831,#645,#646);
#567=AXIS2_PLACEMENT_3D('',#835,#648,#649);
#568=AXIS2_PLACEMENT_3D('',#839,#651,#652);
#569=AXIS2_PLACEMENT_3D('',#843,#654,#655);
#570=AXIS2_PLACEMENT_3D('',#847,#657,#658);
#571=AXIS2_PLACEMENT_3D('',#849,#660,#661);
#572=AXIS2_PLACEMENT_3D('',#853,#663,#664);
#573=AXIS2_PLACEMENT_3D('',#855,#666,#667);
#574=AXIS2_PLACEMENT_3D('',#859,#670,#671);
#575=AXIS2_PLACEMENT_3D('',#862,#673,#674);
#576=AXIS2_PLACEMENT_3D('',#863,#675,#676);
#577=AXIS2_PLACEMENT_3D('',#867,#679,#680);
#578=AXIS2_PLACEMENT_3D('',#871,#682,#683);
#579=AXIS2_PLACEMENT_3D('',#873,#685,#686);
#580=AXIS2_PLACEMENT_3D('',#877,#689,#690);
#581=AXIS2_PLACEMENT_3D('',#880,#692,#693);
#582=AXIS2_PLACEMENT_3D('',#881,#694,#695);
#583=AXIS2_PLACEMENT_3D('',#885,#698,#699);
#584=AXIS2_PLACEMENT_3D('',#887,#700,#701);
#585=AXIS2_PLACEMENT_3D('',#890,#703,#704);
#586=AXIS2_PLACEMENT_3D('',#891,#705,#706);
#587=AXIS2_PLACEMENT_3D('',#893,#707,#708);
#588=AXIS2_PLACEMENT_3D('',#895,#709,#710);
#589=AXIS2_PLACEMENT_3D('',#897,#712,#713);
#590=AXIS2_PLACEMENT_3D('',#899,#714,#715);
#591=AXIS2_PLACEMENT_3D('',#903,#717,#718);
#592=AXIS2_PLACEMENT_3D('',#905,#720,#721);
#593=AXIS2_PLACEMENT_3D('',#906,#722,#723);
#594=AXIS2_PLACEMENT_3D('',#907,#724,#725);
#595=AXIS2_PLACEMENT_3D('',#909,#726,#727);
#596=AXIS2_PLACEMENT_3D('',#912,#729,#730);
#597=AXIS2_PLACEMENT_3D('',#914,#732,#733);
#598=AXIS2_PLACEMENT_3D('',#915,#734,#735);
#599=AXIS2_PLACEMENT_3D('',#916,#736,#737);
#600=AXIS2_PLACEMENT_3D('',#917,#738,#739);
#601=AXIS2_PLACEMENT_3D('',#918,#740,#741);
#602=AXIS2_PLACEMENT_3D('',#920,#743,#744);
#603=AXIS2_PLACEMENT_3D('',#921,#745,#746);
#604=AXIS2_PLACEMENT_3D('',#922,#747,#748);
#605=AXIS2_PLACEMENT_3D('',#925,#751,#752);
#606=AXIS2_PLACEMENT_3D('',#926,#753,#754);
#607=AXIS2_PLACEMENT_3D('',#927,#755,#756);
#608=AXIS2_PLACEMENT_3D('',#929,#758,#759);
#609=AXIS2_PLACEMENT_3D('',#930,#760,#761);
#610=AXIS2_PLACEMENT_3D('',#933,#762,#763);
#611=AXIS2_PLACEMENT_3D('',#937,#765,#766);
#612=AXIS2_PLACEMENT_3D('',#939,#768,#769);
#613=AXIS2_PLACEMENT_3D('',#940,#770,#771);
#614=AXIS2_PLACEMENT_3D('',#943,#773,#774);
#615=AXIS2_PLACEMENT_3D('',#944,#775,#776);
#616=AXIS2_PLACEMENT_3D('',#945,#777,#778);
#617=AXIS2_PLACEMENT_3D('',#946,#779,#780);
#618=AXIS2_PLACEMENT_3D('',#947,#781,#782);
#619=AXIS2_PLACEMENT_3D('',#950,#784,#785);
#620=AXIS2_PLACEMENT_3D('',#951,#786,#787);
#621=AXIS2_PLACEMENT_3D('',#952,#788,#789);
#622=AXIS2_PLACEMENT_3D('',#953,#790,#791);
#623=AXIS2_PLACEMENT_3D('',#956,#793,#794);
#624=AXIS2_PLACEMENT_3D('',#958,#796,#797);
#625=AXIS2_PLACEMENT_3D('',#959,#798,#799);
#626=AXIS2_PLACEMENT_3D('',#960,#800,#801);
#627=AXIS2_PLACEMENT_3D('',#961,#802,#803);
#628=AXIS2_PLACEMENT_3D('',#963,#805,#806);
#629=AXIS2_PLACEMENT_3D('',#964,#807,#808);
#630=AXIS2_PLACEMENT_3D('',#966,#810,#811);
#631=AXIS2_PLACEMENT_3D('',#968,#813,#814);
#632=DIRECTION('axis',(0.,0.,1.));
#633=DIRECTION('refdir',(1.,0.,0.));
#634=DIRECTION('center_axis',(0.,-1.,0.));
#635=DIRECTION('ref_axis',(0.,0.,-1.));
#636=DIRECTION('center_axis',(0.,-1.,0.));
#637=DIRECTION('ref_axis',(0.707106781186549,0.,0.707106781186546));
#638=DIRECTION('',(0.,0.,1.));
#639=DIRECTION('center_axis',(0.,-1.,0.));
#640=DIRECTION('ref_axis',(0.707106781186546,0.,-0.707106781186549));
#641=DIRECTION('',(1.,0.,0.));
#642=DIRECTION('center_axis',(0.,-1.,0.));
#643=DIRECTION('ref_axis',(-0.707106781186548,0.,-0.707106781186548));
#644=DIRECTION('',(0.,0.,-1.));
#645=DIRECTION('center_axis',(0.,-1.,0.));
#646=DIRECTION('ref_axis',(-0.707106781186548,0.,0.707106781186547));
#647=DIRECTION('',(-1.,0.,0.));
#648=DIRECTION('center_axis',(0.,1.,0.));
#649=DIRECTION('ref_axis',(0.707106781186549,0.,0.707106781186546));
#650=DIRECTION('',(1.,0.,0.));
#651=DIRECTION('center_axis',(0.,1.,0.));
#652=DIRECTION('ref_axis',(-0.707106781186548,0.,0.707106781186547));
#653=DIRECTION('',(0.,0.,1.));
#654=DIRECTION('center_axis',(0.,1.,0.));
#655=DIRECTION('ref_axis',(-0.707106781186547,0.,-0.707106781186547));
#656=DIRECTION('',(-1.,0.,0.));
#657=DIRECTION('center_axis',(0.,1.,0.));
#658=DIRECTION('ref_axis',(0.707106781186546,0.,-0.707106781186549));
#659=DIRECTION('',(0.,0.,-1.));
#660=DIRECTION('center_axis',(0.,1.,0.));
#661=DIRECTION('ref_axis',(-0.707106781186547,0.,-0.707106781186547));
#662=DIRECTION('',(0.,1.,0.));
#663=DIRECTION('center_axis',(0.,-1.,0.));
#664=DIRECTION('ref_axis',(-0.707106781186547,0.,-0.707106781186548));
#665=DIRECTION('',(0.,-1.,0.));
#666=DIRECTION('center_axis',(-1.,0.,0.));
#667=DIRECTION('ref_axis',(0.,0.,1.));
#668=DIRECTION('',(0.,-1.,0.));
#669=DIRECTION('',(0.,0.,-1.));
#670=DIRECTION('center_axis',(0.,1.,0.));
#671=DIRECTION('ref_axis',(-0.707106781186548,0.,0.707106781186547));
#672=DIRECTION('',(0.,1.,0.));
#673=DIRECTION('center_axis',(0.,-1.,0.));
#674=DIRECTION('ref_axis',(-0.707106781186548,0.,0.707106781186547));
#675=DIRECTION('center_axis',(0.,0.,1.));
#676=DIRECTION('ref_axis',(1.,0.,0.));
#677=DIRECTION('',(0.,-1.,0.));
#678=DIRECTION('',(-1.,0.,0.));
#679=DIRECTION('center_axis',(0.,1.,0.));
#680=DIRECTION('ref_axis',(-0.707106781186548,0.,-0.707106781186548));
#681=DIRECTION('',(0.,-1.,0.));
#682=DIRECTION('center_axis',(0.,-1.,0.));
#683=DIRECTION('ref_axis',(-0.707106781186547,0.,-0.707106781186548));
#684=DIRECTION('',(0.,1.,0.));
#685=DIRECTION('center_axis',(0.,0.,-1.));
#686=DIRECTION('ref_axis',(-1.,0.,0.));
#687=DIRECTION('',(0.,1.,0.));
#688=DIRECTION('',(1.,0.,0.));
#689=DIRECTION('center_axis',(0.,1.,0.));
#690=DIRECTION('ref_axis',(0.707106781186546,0.,-0.707106781186549));
#691=DIRECTION('',(0.,-1.,0.));
#692=DIRECTION('center_axis',(0.,-1.,0.));
#693=DIRECTION('ref_axis',(0.707106781186546,0.,-0.707106781186549));
#694=DIRECTION('center_axis',(1.,0.,0.));
#695=DIRECTION('ref_axis',(0.,0.,-1.));
#696=DIRECTION('',(0.,1.,0.));
#697=DIRECTION('',(0.,0.,1.));
#698=DIRECTION('center_axis',(0.,1.,0.));
#699=DIRECTION('ref_axis',(0.,0.,-1.));
#700=DIRECTION('center_axis',(0.,1.,0.));
#701=DIRECTION('ref_axis',(0.,0.,-1.));
#702=DIRECTION('',(0.,1.,0.));
#703=DIRECTION('center_axis',(0.,-1.,0.));
#704=DIRECTION('ref_axis',(0.,0.,-1.));
#705=DIRECTION('center_axis',(1.,0.,0.));
#706=DIRECTION('ref_axis',(0.,-0.707106781186548,0.707106781186547));
#707=DIRECTION('center_axis',(1.,0.,-2.77555756156289E-16));
#708=DIRECTION('ref_axis',(2.77555756156289E-16,0.,1.));
#709=DIRECTION('center_axis',(-1.,0.,0.));
#710=DIRECTION('ref_axis',(0.,-1.,0.));
#711=DIRECTION('',(1.,0.,0.));
#712=DIRECTION('center_axis',(0.,0.,-1.));
#713=DIRECTION('ref_axis',(0.707106781186549,-0.707106781186546,0.));
#714=DIRECTION('center_axis',(-2.77555756156289E-16,0.,-1.));
#715=DIRECTION('ref_axis',(1.,0.,-2.77555756156289E-16));
#716=DIRECTION('',(0.,0.,1.));
#717=DIRECTION('center_axis',(0.,0.,1.));
#718=DIRECTION('ref_axis',(0.,-1.,0.));
#719=DIRECTION('',(0.,0.,-1.));
#720=DIRECTION('center_axis',(0.40824829046386,-0.408248290463864,-0.816496580927727));
#721=DIRECTION('ref_axis',(0.577350269189624,-0.577350269189627,0.577350269189627));
#722=DIRECTION('center_axis',(0.,-1.,0.));
#723=DIRECTION('ref_axis',(0.70710678118655,0.,0.707106781186545));
#724=DIRECTION('center_axis',(-1.,0.,0.));
#725=DIRECTION('ref_axis',(0.,-0.707106781186547,-0.707106781186548));
#726=DIRECTION('center_axis',(-1.,0.,0.));
#727=DIRECTION('ref_axis',(0.,0.,-1.));
#728=DIRECTION('',(1.,0.,0.));
#729=DIRECTION('center_axis',(1.,0.,0.));
#730=DIRECTION('ref_axis',(0.,-1.,0.));
#731=DIRECTION('',(-1.,0.,0.));
#732=DIRECTION('center_axis',(-0.40824829046386,-0.816496580927725,0.408248290463869));
#733=DIRECTION('ref_axis',(0.577350269189621,-0.577350269189626,-0.577350269189631));
#734=DIRECTION('center_axis',(0.,-1.,0.));
#735=DIRECTION('ref_axis',(0.707106781186546,0.,-0.707106781186549));
#736=DIRECTION('center_axis',(0.,0.,1.));
#737=DIRECTION('ref_axis',(-0.707106781186548,-0.707106781186547,0.));
#738=DIRECTION('center_axis',(0.,0.,1.));
#739=DIRECTION('ref_axis',(-1.,0.,0.));
#740=DIRECTION('center_axis',(-1.11022302462516E-15,0.,-1.));
#741=DIRECTION('ref_axis',(0.,-1.,0.));
#742=DIRECTION('',(0.,0.,1.));
#743=DIRECTION('center_axis',(0.408248290463864,-0.816496580927727,0.40824829046386));
#744=DIRECTION('ref_axis',(-0.577350269189627,-0.577350269189627,-0.577350269189624));
#745=DIRECTION('center_axis',(-0.816496580927726,0.408248290463863,-0.408248290463863));
#746=DIRECTION('ref_axis',(-0.577350269189626,-0.577350269189626,0.577350269189626));
#747=DIRECTION('center_axis',(0.,1.,0.));
#748=DIRECTION('ref_axis',(0.707106781186546,0.,-0.707106781186549));
#749=DIRECTION('',(0.,1.,0.));
#750=DIRECTION('',(0.,-1.,0.));
#751=DIRECTION('center_axis',(0.,0.,-1.));
#752=DIRECTION('ref_axis',(-1.,0.,0.));
#753=DIRECTION('center_axis',(0.,1.,0.));
#754=DIRECTION('ref_axis',(1.,0.,0.));
#755=DIRECTION('center_axis',(0.,1.,0.));
#756=DIRECTION('ref_axis',(0.707106781186549,0.,0.707106781186546));
#757=DIRECTION('',(0.,1.,0.));
#758=DIRECTION('center_axis',(1.,0.,0.));
#759=DIRECTION('ref_axis',(0.,0.,-1.));
#760=DIRECTION('center_axis',(1.,0.,0.));
#761=DIRECTION('ref_axis',(0.,-0.707106781186548,0.707106781186547));
#762=DIRECTION('center_axis',(1.,0.,-2.77555756156289E-16));
#763=DIRECTION('ref_axis',(2.77555756156289E-16,0.,1.));
#764=DIRECTION('',(1.,0.,0.));
#765=DIRECTION('center_axis',(-1.,0.,0.));
#766=DIRECTION('ref_axis',(0.,-1.,0.));
#767=DIRECTION('',(-1.,0.,0.));
#768=DIRECTION('center_axis',(0.,0.,-1.));
#769=DIRECTION('ref_axis',(0.707106781186549,-0.707106781186546,0.));
#770=DIRECTION('center_axis',(-2.77555756156289E-16,0.,-1.));
#771=DIRECTION('ref_axis',(1.,0.,-2.77555756156289E-16));
#772=DIRECTION('',(0.,0.,-1.));
#773=DIRECTION('center_axis',(0.,0.,1.));
#774=DIRECTION('ref_axis',(0.,-1.,0.));
#775=DIRECTION('center_axis',(0.408248290463863,-0.408248290463863,-0.816496580927726));
#776=DIRECTION('ref_axis',(0.577350269189626,-0.577350269189626,0.577350269189626));
#777=DIRECTION('center_axis',(0.,-1.,0.));
#778=DIRECTION('ref_axis',(0.70710678118655,0.,0.707106781186545));
#779=DIRECTION('center_axis',(-1.,0.,0.));
#780=DIRECTION('ref_axis',(0.,-0.707106781186547,-0.707106781186548));
#781=DIRECTION('center_axis',(-1.,0.,0.));
#782=DIRECTION('ref_axis',(0.,0.,-1.));
#783=DIRECTION('',(-1.,0.,0.));
#784=DIRECTION('center_axis',(1.,0.,0.));
#785=DIRECTION('ref_axis',(0.,-1.,0.));
#786=DIRECTION('center_axis',(-0.408248290463863,-0.816496580927725,0.408248290463866));
#787=DIRECTION('ref_axis',(0.577350269189623,-0.577350269189628,-0.577350269189627));
#788=DIRECTION('center_axis',(0.,0.,1.));
#789=DIRECTION('ref_axis',(-0.707106781186548,-0.707106781186547,0.));
#790=DIRECTION('center_axis',(0.,0.,1.));
#791=DIRECTION('ref_axis',(-1.,0.,0.));
#792=DIRECTION('',(0.,0.,1.));
#793=DIRECTION('center_axis',(-1.11022302462516E-15,0.,-1.));
#794=DIRECTION('ref_axis',(0.,-1.,0.));
#795=DIRECTION('',(0.,0.,-1.));
#796=DIRECTION('center_axis',(0.408248290463863,-0.816496580927726,0.408248290463863));
#797=DIRECTION('ref_axis',(-0.577350269189626,-0.577350269189625,-0.577350269189626));
#798=DIRECTION('center_axis',(-0.816496580927726,0.408248290463863,-0.408248290463863));
#799=DIRECTION('ref_axis',(-0.577350269189626,-0.577350269189626,0.577350269189625));
#800=DIRECTION('center_axis',(0.,-1.,0.));
#801=DIRECTION('ref_axis',(-0.707106781186548,0.,0.707106781186547));
#802=DIRECTION('center_axis',(-1.,0.,0.));
#803=DIRECTION('ref_axis',(0.,0.,1.));
#804=DIRECTION('',(0.,-1.,0.));
#805=DIRECTION('center_axis',(0.,1.,0.));
#806=DIRECTION('ref_axis',(1.,0.,0.));
#807=DIRECTION('center_axis',(0.,1.,0.));
#808=DIRECTION('ref_axis',(0.707106781186549,0.,0.707106781186546));
#809=DIRECTION('',(0.,-1.,0.));
#810=DIRECTION('center_axis',(0.,1.,0.));
#811=DIRECTION('ref_axis',(-0.707106781186548,0.,0.707106781186547));
#812=DIRECTION('',(0.,1.,0.));
#813=DIRECTION('center_axis',(0.,0.,1.));
#814=DIRECTION('ref_axis',(1.,0.,0.));
#815=CARTESIAN_POINT('',(0.,0.,0.));
#816=CARTESIAN_POINT('Origin',(50.,35.,-35.));
#817=CARTESIAN_POINT('',(100.,35.,-4.));
#818=CARTESIAN_POINT('',(96.,35.,0.));
#819=CARTESIAN_POINT('Origin',(96.,35.,-4.));
#820=CARTESIAN_POINT('',(100.,35.,-66.));
#821=CARTESIAN_POINT('',(100.,35.,-17.5));
#822=CARTESIAN_POINT('',(96.,35.,-70.));
#823=CARTESIAN_POINT('Origin',(96.,35.,-66.));
#824=CARTESIAN_POINT('',(4.,35.,-70.));
#825=CARTESIAN_POINT('',(75.,35.,-70.));
#826=CARTESIAN_POINT('',(0.,35.,-66.));
#827=CARTESIAN_POINT('Origin',(4.,35.,-66.));
#828=CARTESIAN_POINT('',(0.,35.,-4.));
#829=CARTESIAN_POINT('',(0.,35.,-52.5));
#830=CARTESIAN_POINT('',(4.,35.,0.));
#831=CARTESIAN_POINT('Origin',(4.,35.,-4.));
#832=CARTESIAN_POINT('',(25.,35.,0.));
#833=CARTESIAN_POINT('',(96.,35.,-2.5));
#834=CARTESIAN_POINT('',(97.5,35.,-4.));
#835=CARTESIAN_POINT('Origin',(96.,35.,-4.));
#836=CARTESIAN_POINT('',(4.,35.,-2.5));
#837=CARTESIAN_POINT('',(25.,35.,-2.5));
#838=CARTESIAN_POINT('',(2.5,35.,-4.));
#839=CARTESIAN_POINT('Origin',(4.,35.,-4.));
#840=CARTESIAN_POINT('',(2.5,35.,-66.));
#841=CARTESIAN_POINT('',(2.5,35.,-52.5));
#842=CARTESIAN_POINT('',(4.,35.,-67.5));
#843=CARTESIAN_POINT('Origin',(4.,35.,-66.));
#844=CARTESIAN_POINT('',(96.,35.,-67.5));
#845=CARTESIAN_POINT('',(75.,35.,-67.5));
#846=CARTESIAN_POINT('',(97.5,35.,-66.));
#847=CARTESIAN_POINT('Origin',(96.,35.,-66.));
#848=CARTESIAN_POINT('',(97.5,35.,-17.5));
#849=CARTESIAN_POINT('Origin',(4.,0.,-66.));
#850=CARTESIAN_POINT('',(2.5,4.,-66.));
#851=CARTESIAN_POINT('',(2.5,0.,-66.));
#852=CARTESIAN_POINT('',(4.,4.,-67.5));
#853=CARTESIAN_POINT('Origin',(4.,4.,-66.));
#854=CARTESIAN_POINT('',(4.,0.,-67.5));
#855=CARTESIAN_POINT('Origin',(2.5,0.,-70.));
#856=CARTESIAN_POINT('',(2.5,4.,-4.));
#857=CARTESIAN_POINT('',(2.5,0.,-4.));
#858=CARTESIAN_POINT('',(2.5,4.,-52.5));
#859=CARTESIAN_POINT('Origin',(4.,0.,-4.));
#860=CARTESIAN_POINT('',(4.,4.,-2.5));
#861=CARTESIAN_POINT('',(4.,0.,-2.5));
#862=CARTESIAN_POINT('Origin',(4.,4.,-4.));
#863=CARTESIAN_POINT('Origin',(0.,0.,-2.5));
#864=CARTESIAN_POINT('',(96.,4.,-2.5));
#865=CARTESIAN_POINT('',(96.,0.,-2.5));
#866=CARTESIAN_POINT('',(25.,4.,-2.5));
#867=CARTESIAN_POINT('Origin',(4.,0.,-66.));
#868=CARTESIAN_POINT('',(4.,4.,-70.));
#869=CARTESIAN_POINT('',(4.,0.,-70.));
#870=CARTESIAN_POINT('',(0.,4.,-66.));
#871=CARTESIAN_POINT('Origin',(4.,4.,-66.));
#872=CARTESIAN_POINT('',(0.,0.,-66.));
#873=CARTESIAN_POINT('Origin',(100.,0.,-70.));
#874=CARTESIAN_POINT('',(96.,4.,-70.));
#875=CARTESIAN_POINT('',(96.,0.,-70.));
#876=CARTESIAN_POINT('',(75.,4.,-70.));
#877=CARTESIAN_POINT('Origin',(96.,0.,-66.));
#878=CARTESIAN_POINT('',(100.,4.,-66.));
#879=CARTESIAN_POINT('',(100.,0.,-66.));
#880=CARTESIAN_POINT('Origin',(96.,4.,-66.));
#881=CARTESIAN_POINT('Origin',(100.,0.,0.));
#882=CARTESIAN_POINT('',(100.,4.,-4.));
#883=CARTESIAN_POINT('',(100.,0.,-4.));
#884=CARTESIAN_POINT('',(100.,4.,-17.5));
#885=CARTESIAN_POINT('Origin',(50.,5.,-35.));
#886=CARTESIAN_POINT('',(50.,0.,-31.));
#887=CARTESIAN_POINT('Origin',(50.,0.,-35.));
#888=CARTESIAN_POINT('',(50.,2.5,-31.));
#889=CARTESIAN_POINT('',(50.,5.,-31.));
#890=CARTESIAN_POINT('Origin',(50.,2.5,-35.));
#891=CARTESIAN_POINT('Origin',(25.,4.,-4.));
#892=CARTESIAN_POINT('',(4.,2.5,-4.));
#893=CARTESIAN_POINT('Origin',(4.,4.,-4.));
#894=CARTESIAN_POINT('',(96.,2.5,-4.));
#895=CARTESIAN_POINT('Origin',(96.,4.,-4.));
#896=CARTESIAN_POINT('',(25.,2.5,-4.));
#897=CARTESIAN_POINT('Origin',(96.,4.,-17.5));
#898=CARTESIAN_POINT('',(97.5,4.,-4.));
#899=CARTESIAN_POINT('Origin',(96.,4.,-4.));
#900=CARTESIAN_POINT('',(97.5,4.,-66.));
#901=CARTESIAN_POINT('',(97.5,4.,-17.5));
#902=CARTESIAN_POINT('',(96.,2.5,-66.));
#903=CARTESIAN_POINT('Origin',(96.,4.,-66.));
#904=CARTESIAN_POINT('',(96.,2.5,-17.5));
#905=CARTESIAN_POINT('Origin',(96.,4.,-4.));
#906=CARTESIAN_POINT('Origin',(96.,4.,-4.));
#907=CARTESIAN_POINT('Origin',(75.,4.,-66.));
#908=CARTESIAN_POINT('',(96.,4.,-67.5));
#909=CARTESIAN_POINT('Origin',(96.,4.,-66.));
#910=CARTESIAN_POINT('',(75.,4.,-67.5));
#911=CARTESIAN_POINT('',(4.,2.5,-66.));
#912=CARTESIAN_POINT('Origin',(4.,4.,-66.));
#913=CARTESIAN_POINT('',(75.,2.5,-66.));
#914=CARTESIAN_POINT('Origin',(96.,4.,-66.));
#915=CARTESIAN_POINT('Origin',(96.,4.,-66.));
#916=CARTESIAN_POINT('Origin',(4.,4.,-52.5));
#917=CARTESIAN_POINT('Origin',(4.,4.,-66.));
#918=CARTESIAN_POINT('Origin',(4.,4.,-4.));
#919=CARTESIAN_POINT('',(4.,2.5,-52.5));
#920=CARTESIAN_POINT('Origin',(4.,4.,-66.));
#921=CARTESIAN_POINT('Origin',(4.,4.,-4.));
#922=CARTESIAN_POINT('Origin',(96.,0.,-66.));
#923=CARTESIAN_POINT('',(96.,0.,-67.5));
#924=CARTESIAN_POINT('',(97.5,0.,-66.));
#925=CARTESIAN_POINT('Origin',(100.,0.,-67.5));
#926=CARTESIAN_POINT('Origin',(50.,2.5,-35.));
#927=CARTESIAN_POINT('Origin',(96.,0.,-4.));
#928=CARTESIAN_POINT('',(97.5,0.,-4.));
#929=CARTESIAN_POINT('Origin',(97.5,0.,0.));
#930=CARTESIAN_POINT('Origin',(25.,4.,-4.));
#931=CARTESIAN_POINT('',(4.,4.,0.));
#932=CARTESIAN_POINT('',(4.,0.,-4.));
#933=CARTESIAN_POINT('Origin',(4.,4.,-4.));
#934=CARTESIAN_POINT('',(96.,0.,-4.));
#935=CARTESIAN_POINT('',(25.,0.,-4.));
#936=CARTESIAN_POINT('',(96.,4.,0.));
#937=CARTESIAN_POINT('Origin',(96.,4.,-4.));
#938=CARTESIAN_POINT('',(25.,4.,0.));
#939=CARTESIAN_POINT('Origin',(96.,4.,-17.5));
#940=CARTESIAN_POINT('Origin',(96.,4.,-4.));
#941=CARTESIAN_POINT('',(96.,0.,-66.));
#942=CARTESIAN_POINT('',(96.,0.,-17.5));
#943=CARTESIAN_POINT('Origin',(96.,4.,-66.));
#944=CARTESIAN_POINT('Origin',(96.,4.,-4.));
#945=CARTESIAN_POINT('Origin',(96.,4.,-4.));
#946=CARTESIAN_POINT('Origin',(75.,4.,-66.));
#947=CARTESIAN_POINT('Origin',(96.,4.,-66.));
#948=CARTESIAN_POINT('',(4.,0.,-66.));
#949=CARTESIAN_POINT('',(75.,0.,-66.));
#950=CARTESIAN_POINT('Origin',(4.,4.,-66.));
#951=CARTESIAN_POINT('Origin',(96.,4.,-66.));
#952=CARTESIAN_POINT('Origin',(4.,4.,-52.5));
#953=CARTESIAN_POINT('Origin',(4.,4.,-66.));
#954=CARTESIAN_POINT('',(4.,0.,-52.5));
#955=CARTESIAN_POINT('',(0.,4.,-4.));
#956=CARTESIAN_POINT('Origin',(4.,4.,-4.));
#957=CARTESIAN_POINT('',(0.,4.,-52.5));
#958=CARTESIAN_POINT('Origin',(4.,4.,-66.));
#959=CARTESIAN_POINT('Origin',(4.,4.,-4.));
#960=CARTESIAN_POINT('Origin',(4.,4.,-4.));
#961=CARTESIAN_POINT('Origin',(0.,0.,-70.));
#962=CARTESIAN_POINT('',(0.,0.,-4.));
#963=CARTESIAN_POINT('Origin',(50.,0.,-35.));
#964=CARTESIAN_POINT('Origin',(96.,0.,-4.));
#965=CARTESIAN_POINT('',(96.,0.,0.));
#966=CARTESIAN_POINT('Origin',(4.,0.,-4.));
#967=CARTESIAN_POINT('',(4.,0.,0.));
#968=CARTESIAN_POINT('Origin',(0.,0.,0.));
#969=UNCERTAINTY_MEASURE_WITH_UNIT(LENGTH_MEASURE(0.01),#973,
'DISTANCE_ACCURACY_VALUE',
'Maximum model space distance between geometric entities at asserted c
onnectivities');
#970=UNCERTAINTY_MEASURE_WITH_UNIT(LENGTH_MEASURE(0.01),#973,
'DISTANCE_ACCURACY_VALUE',
'Maximum model space distance between geometric entities at asserted c
onnectivities');
#971=(
GEOMETRIC_REPRESENTATION_CONTEXT(3)
GLOBAL_UNCERTAINTY_ASSIGNED_CONTEXT((#969))
GLOBAL_UNIT_ASSIGNED_CONTEXT((#973,#975,#976))
REPRESENTATION_CONTEXT('','3D')
);
#972=(
GEOMETRIC_REPRESENTATION_CONTEXT(3)
GLOBAL_UNCERTAINTY_ASSIGNED_CONTEXT((#970))
GLOBAL_UNIT_ASSIGNED_CONTEXT((#973,#975,#976))
REPRESENTATION_CONTEXT('','3D')
);
#973=(
LENGTH_UNIT()
NAMED_UNIT(*)
SI_UNIT(.MILLI.,.METRE.)
);
#974=(
LENGTH_UNIT()
NAMED_UNIT(*)
SI_UNIT($,.METRE.)
);
#975=(
NAMED_UNIT(*)
PLANE_ANGLE_UNIT()
SI_UNIT($,.RADIAN.)
);
#976=(
NAMED_UNIT(*)
SI_UNIT($,.STERADIAN.)
SOLID_ANGLE_UNIT()
);
#977=SHAPE_DEFINITION_REPRESENTATION(#978,#979);
#978=PRODUCT_DEFINITION_SHAPE('',$,#981);
#979=SHAPE_REPRESENTATION('',(#561),#971);
#980=PRODUCT_DEFINITION_CONTEXT('part definition',#985,'design');
#981=PRODUCT_DEFINITION('2026-04-28-22-04-07-940',
'wifi connectivity v4',#982,#980);
#982=PRODUCT_DEFINITION_FORMATION('',$,#987);
#983=PRODUCT_RELATED_PRODUCT_CATEGORY('wifi connectivity v4',
'wifi connectivity v4',(#987));
#984=APPLICATION_PROTOCOL_DEFINITION('international standard',
'automotive_design',2009,#985);
#985=APPLICATION_CONTEXT(
'Core Data for Automotive Mechanical Design Process');
#986=PRODUCT_CONTEXT('part definition',#985,'mechanical');
#987=PRODUCT('2026-04-28-22-04-07-940','wifi connectivity v4',$,(#986));
#988=PRESENTATION_STYLE_ASSIGNMENT((#989));
#989=SURFACE_STYLE_USAGE(.BOTH.,#990);
#990=SURFACE_SIDE_STYLE('',(#991));
#991=SURFACE_STYLE_FILL_AREA(#992);
#992=FILL_AREA_STYLE('Steel - Satin',(#993));
#993=FILL_AREA_STYLE_COLOUR('Steel - Satin',#994);
#994=COLOUR_RGB('Steel - Satin',0.627450980392157,0.627450980392157,0.627450980392157);
ENDSEC;
END-ISO-10303-21;
