M48
; DRILL file KiCad 10.0.1 date 2026-06-10T18:52:54
; FORMAT={-:-/ absolute / metric / decimal}
; #@! TF.CreationDate,2026-06-10T18:52:54+02:00
; #@! TF.GenerationSoftware,Kicad,Pcbnew,10.0.1
; #@! TF.FileFunction,Plated,1,2,PTH
FMAT,2
METRIC
; #@! TA.AperFunction,Plated,PTH,ViaDrill
T1C0.300
; #@! TA.AperFunction,Plated,PTH,ComponentDrill
T2C0.600
; #@! TA.AperFunction,Plated,PTH,ComponentDrill
T3C1.000
%
G90
G05
T1
X151.1Y-107.0
X151.6Y-116.1
X154.1Y-110.95
X155.35Y-109.0
X155.65Y-117.3
X160.35Y-101.9
X162.5Y-102.2
X162.6Y-107.6
X163.269Y-101.98
X169.05Y-100.25
X171.3Y-119.2
X171.95Y-101.85
X172.8Y-113.1
X174.4Y-115.0
X175.3Y-105.15
X175.3Y-112.85
X175.55Y-106.55
T3
X147.5Y-109.68
X147.5Y-112.22
X147.5Y-114.76
X147.5Y-117.3
X174.5Y-117.8
X174.66Y-101.8
X177.04Y-117.8
X177.2Y-101.8
X179.58Y-117.8
X179.74Y-101.8
X182.12Y-117.8
X182.28Y-101.8
T2
G00X176.745Y-105.48
M15
G01X177.845Y-105.48
M16
G05
G00X176.745Y-114.12
M15
G01X177.845Y-114.12
M16
G05
G00X181.075Y-105.48
M15
G01X181.875Y-105.48
M16
G05
G00X181.075Y-114.12
M15
G01X181.875Y-114.12
M16
G05
M30
