M48
; DRILL file KiCad 10.0.1 date 2026-08-19T15:55:55
; FORMAT={-:-/ absolute / metric / decimal}
; #@! TF.CreationDate,2026-08-19T15:55:55+02:00
; #@! TF.GenerationSoftware,Kicad,Pcbnew,10.0.1
; #@! TF.FileFunction,Plated,1,4,PTH
FMAT,2
METRIC
; #@! TA.AperFunction,Plated,PTH,ViaDrill
T1C0.300
; #@! TA.AperFunction,Plated,PTH,ViaDrill
T2C0.400
; #@! TA.AperFunction,Plated,PTH,ComponentDrill
T3C0.500
; #@! TA.AperFunction,Plated,PTH,ComponentDrill
T4C0.600
; #@! TA.AperFunction,Plated,PTH,ComponentDrill
T5C1.000
; #@! TA.AperFunction,Plated,PTH,ComponentDrill
T6C1.200
; #@! TA.AperFunction,Plated,PTH,ComponentDrill
T7C4.300
%
G90
G05
T1
X9.9Y19.54
X11.04Y19.48
X12.93Y12.46
X16.46Y13.65
X16.85Y39.79
X17.39Y13.31
X17.49Y38.48
X19.09Y40.94
X19.797Y36.812
X19.92Y13.96
X20.26Y8.23
X20.55Y23.6
X20.68Y22.15
X20.966Y38.405
X20.975Y12.445
X21.007Y40.184
X22.02Y8.23
X22.17Y11.25
X22.32Y21.78
X22.35Y40.16
X22.51Y29.32
X22.83Y32.39
X23.06Y12.01
X23.5Y18.15
X23.82Y40.21
X24.34Y17.98
X24.86Y32.41
X25.14Y17.98
X25.77Y32.39
X25.95Y42.33
X26.086Y18.144
X26.66Y35.16
X28.06Y33.57
X28.65Y26.86
X30.71Y36.16
X32.98Y11.69
X35.7Y35.63
X37.52Y21.39
X38.33Y21.42
X39.04Y34.42
X41.0Y29.79
T2
X7.75Y26.64
X7.75Y25.32
X7.81Y13.59
X7.81Y12.27
X7.81Y10.96
X9.11Y23.25
X9.19Y29.29
X9.19Y27.98
X9.204Y26.64
X9.204Y25.32
X9.74Y10.98
X9.85Y13.87
X10.1Y32.9
X10.1Y31.58
X10.37Y23.98
X10.41Y10.24
X10.87Y40.585
X11.08Y23.35
X11.23Y8.53
X11.41Y46.6
X11.41Y45.28
X11.41Y43.97
X11.554Y32.9
X11.554Y31.58
X11.9Y34.16
X12.07Y7.68
X12.84Y40.585
X12.864Y46.6
X12.864Y45.28
X12.864Y43.97
X12.98Y30.77
X13.49Y22.47
X13.62Y30.2
X13.71Y13.99
X13.71Y7.65
X13.76Y21.55
X14.05Y18.16
X14.318Y46.6
X14.318Y45.28
X14.318Y43.97
X14.35Y24.04
X14.45Y8.48
X14.7Y17.62
X14.88Y40.585
X14.91Y15.36
X15.14Y16.89
X15.32Y15.88
X15.64Y34.58
X15.64Y33.26
X15.772Y46.6
X15.772Y45.28
X15.772Y43.97
X15.97Y8.14
X16.26Y10.63
X16.26Y9.31
X16.42Y20.62
X16.586Y25.118
X16.85Y27.96
X16.87Y29.08
X16.97Y24.36
X17.11Y32.17
X17.21Y42.54
X17.227Y46.6
X17.227Y45.28
X17.227Y43.97
X17.26Y33.33
X17.26Y20.42
X17.5Y10.02
X17.72Y29.77
X17.86Y35.195
X18.15Y16.87
X18.15Y15.55
X18.22Y9.45
X18.53Y42.54
X18.86Y34.685
X19.16Y33.48
X19.604Y16.87
X19.604Y15.55
X20.07Y34.715
X20.29Y33.16
X20.62Y18.01
X20.95Y35.73
X21.1Y15.5
X21.47Y42.84
X21.71Y33.27
X21.81Y38.77
X21.81Y17.06
X22.1Y34.56
X23.36Y24.19
X23.36Y22.87
X23.73Y33.04
X24.71Y42.82
X24.814Y24.19
X24.814Y22.87
X26.04Y14.95
X26.268Y24.19
X26.268Y22.87
X27.0Y41.46
X27.36Y38.74
X27.45Y34.29
X27.63Y35.92
X27.722Y24.19
X27.722Y22.87
X28.0Y38.22
X29.35Y19.81
X30.3Y30.23
X30.43Y17.12
X30.73Y17.9
X30.89Y31.59
X30.99Y19.08
X31.0Y39.51
X31.78Y16.72
X32.27Y15.56
X32.68Y42.87
X32.68Y41.56
X32.81Y14.0
X33.06Y29.87
X33.234Y16.72
X33.61Y25.13
X33.65Y22.53
X33.69Y18.18
X33.724Y15.56
X34.134Y42.87
X34.134Y41.56
X34.31Y25.82
X34.4Y17.3
X34.41Y21.94
X35.178Y15.56
X35.31Y17.16
X35.63Y11.75
X35.964Y43.97
X36.29Y11.005
X36.89Y40.585
X37.047Y11.703
X37.418Y43.97
X37.765Y11.03
X37.96Y20.75
X38.124Y8.25
X38.16Y39.53
X38.16Y38.21
X38.367Y11.713
X38.872Y46.6
X38.872Y45.28
X38.872Y43.97
X38.9Y40.58
X39.04Y29.73
X39.09Y11.03
X39.578Y8.25
X39.614Y39.53
X39.614Y38.21
X40.327Y46.6
X40.327Y45.28
X40.327Y43.97
X40.487Y10.273
X40.517Y14.493
X40.52Y15.95
X40.86Y40.585
X40.88Y20.56
X40.89Y8.85
X40.89Y7.54
X41.38Y21.23
X41.51Y34.86
X41.86Y20.54
X41.97Y34.21
X42.04Y9.53
X42.44Y34.87
X43.217Y10.563
X43.237Y14.203
X43.317Y11.833
X43.337Y13.023
X43.8Y40.34
X43.8Y39.03
X43.8Y37.71
X43.94Y26.67
X43.94Y25.35
X43.94Y24.04
X43.94Y22.72
X45.22Y12.4
X45.22Y11.08
X45.254Y40.34
X45.254Y39.03
X45.254Y37.71
X45.394Y26.67
X45.394Y25.35
X46.674Y12.4
X46.674Y11.08
X46.708Y40.34
X46.708Y39.03
X46.708Y37.71
X46.848Y26.67
X46.848Y25.35
X46.848Y24.04
T4
X2.555Y5.79
X2.56Y45.79
X3.5Y8.07
X3.5Y3.51
X3.505Y48.07
X3.505Y43.51
X5.78Y9.015
X5.78Y2.565
X5.785Y49.015
X5.785Y42.565
X8.06Y8.07
X8.06Y3.51
X8.065Y48.07
X8.065Y43.51
X9.005Y5.79
X9.01Y45.79
X42.555Y45.79
X42.555Y5.79
X43.5Y48.07
X43.5Y43.51
X43.5Y8.07
X43.5Y3.51
X45.78Y49.015
X45.78Y42.565
X45.78Y9.015
X45.78Y2.565
X48.06Y48.07
X48.06Y43.51
X48.06Y8.07
X48.06Y3.51
X49.005Y45.79
X49.005Y5.79
T5
X5.84Y23.61
X5.84Y21.07
X5.84Y18.53
X5.84Y15.99
X5.89Y35.64
X5.89Y33.1
X5.89Y30.56
X5.89Y28.02
X16.04Y5.84
X18.58Y5.84
X19.72Y45.84
X21.12Y5.84
X22.26Y45.84
X23.66Y5.84
X24.8Y45.84
X27.34Y45.84
X28.05Y5.9
X29.88Y45.84
X30.59Y5.9
X32.42Y45.84
X33.13Y5.9
X35.67Y5.9
T6
X45.735Y20.03
X45.735Y17.49
T7
X5.78Y5.79
X5.785Y45.79
X45.78Y45.79
X45.78Y5.79
T3
G00X46.95Y35.68
M15
G01X46.25Y35.68
M16
G05
G00X46.95Y29.08
M15
G01X46.25Y29.08
M16
G05
M30
